<svg width="161" height="119" viewBox="0 0 161 119" fill="none" xmlns="http://www.w3.org/2000/svg">
<g filter="url(#filter0_d_16743_22418)">
<rect x="20.0537" y="17.8564" width="138.132" height="88.2717" rx="5.7889" transform="rotate(3 20.0537 17.8564)" fill="white" shape-rendering="crispEdges"/>
<path d="M36.1536 79.3278L31.9165 79.1057L31.9638 78.2028C32.0309 76.9223 32.8961 76.222 34.1884 76.2897C35.4808 76.3575 36.268 77.1443 36.2009 78.4249L36.1536 79.3278ZM35.6929 78.7474L35.7111 78.3992C35.7625 77.4196 35.1446 76.902 34.1591 76.8504C33.1676 76.7984 32.5049 77.2489 32.4533 78.2344L32.4354 78.5767L35.6929 78.7474ZM36.4739 74.459C36.4275 75.3442 35.7409 75.9118 34.7908 75.862C33.8702 75.8138 33.2172 75.176 33.2623 74.3144C33.3087 73.4292 33.9882 72.9973 34.8439 73.0422L35.0209 73.0515L34.9003 75.353C35.5513 75.3516 35.9845 74.9896 36.0136 74.4349C36.0365 73.9982 35.8283 73.6796 35.4677 73.5601L35.657 73.1085C36.1956 73.332 36.507 73.8276 36.4739 74.459ZM33.7167 74.3382C33.6917 74.8162 33.9747 75.1743 34.4947 75.3021L34.5856 73.5671C34.1483 73.556 33.7458 73.7835 33.7167 74.3382ZM36.5978 70.8522L36.5703 71.3775L33.4171 72.4904L33.4465 71.9298L35.9472 71.0726L33.5491 69.9705L33.5782 69.4158L36.5978 70.8522ZM36.8324 67.6181C36.786 68.5033 36.0994 69.0709 35.1493 69.0211C34.2287 68.9729 33.5757 68.3351 33.6208 67.4735C33.6672 66.5883 34.3467 66.1564 35.2024 66.2013L35.3794 66.2105L35.2588 68.5121C35.9098 68.5107 36.343 68.1487 36.3721 67.594C36.395 67.1573 36.1868 66.8387 35.8262 66.7192L36.0155 66.2676C36.5542 66.4911 36.8655 66.9867 36.8324 67.6181ZM34.0752 67.4973C34.0502 67.9753 34.3332 68.3334 34.8532 68.4612L34.9441 66.7262C34.5068 66.7151 34.1043 66.9426 34.0752 67.4973ZM36.875 65.5634L36.4206 65.5396L36.4803 64.4006L33.1519 64.2262L33.0922 65.3651L32.6378 65.3413L32.7254 63.6713L36.5081 63.8695L36.5678 62.7305L37.0222 62.7544L36.875 65.5634ZM35.6569 59.3358C36.6129 59.3859 37.2311 60.0101 37.1869 60.8539C37.1427 61.6978 36.4626 62.2539 35.5066 62.2038C34.5506 62.1537 33.9323 61.5296 33.9766 60.6857C34.0208 59.8418 34.7009 59.2857 35.6569 59.3358ZM35.5347 61.6668C36.237 61.7036 36.704 61.3731 36.7325 60.8301C36.7609 60.2872 36.331 59.9096 35.6287 59.8728C34.9206 59.8357 34.4535 60.1663 34.4251 60.7092C34.3966 61.2521 34.8266 61.6297 35.5347 61.6668ZM37.3748 57.2683C37.3528 57.6873 37.1299 57.9892 36.8079 58.1498L38.3245 58.2293L38.2967 58.7604L34.148 58.543L34.1759 58.0119L34.6303 58.0357C34.3327 57.8426 34.1425 57.519 34.1645 57.1C34.2078 56.2738 34.964 55.846 35.8374 55.8918C36.7049 55.9372 37.4181 56.4421 37.3748 57.2683ZM35.6211 58.0995L35.8335 58.1106C36.5417 58.1477 36.8823 57.7454 36.903 57.3501C36.9321 56.7953 36.4761 56.4637 35.8092 56.4288C35.1424 56.3938 34.6542 56.6759 34.6251 57.2307C34.6044 57.6261 34.8893 58.0611 35.6211 58.0995ZM35.3522 54.8745L37.4294 54.9834L37.4041 55.4673L34.3118 55.3052L34.3372 54.8213L34.6735 54.8389C34.4723 54.7278 34.2992 54.5294 34.3141 54.2461C34.3286 53.9687 34.5037 53.7885 34.7689 53.6959C34.5673 53.5907 34.3614 53.3432 34.3775 53.0363C34.4003 52.5996 34.7786 52.3827 35.292 52.4097L37.5581 52.5284L37.5324 53.0182L35.4198 52.9075C35.107 52.8911 34.8738 52.9381 34.8595 53.2095C34.8472 53.4456 35.0565 53.6282 35.4165 53.647L37.4938 53.7559L37.4681 54.2457L35.3554 54.135C35.0427 54.1186 34.8091 54.1714 34.7949 54.4429C34.7822 54.6849 34.9922 54.8556 35.3522 54.8745ZM37.7287 50.5159C37.6823 51.4011 36.9957 51.9687 36.0456 51.9189C35.125 51.8706 34.472 51.2328 34.5171 50.3712C34.5635 49.486 35.243 49.0542 36.0987 49.099L36.2757 49.1083L36.1551 51.4098C36.8061 51.4084 37.2393 51.0465 37.2684 50.4918C37.2913 50.0551 37.0831 49.7364 36.7225 49.6169L36.9118 49.1653C37.4504 49.3888 37.7618 49.8844 37.7287 50.5159ZM34.9715 50.3951C34.9465 50.8731 35.2295 51.2311 35.7495 51.359L35.8404 49.624C35.4031 49.6129 35.0006 49.8403 34.9715 50.3951ZM37.775 48.3903L34.6886 48.2286L34.7164 47.6974L35.1354 47.7194C34.8906 47.535 34.6828 47.2104 34.7057 46.7737C34.74 46.1187 35.2139 45.7707 35.8689 45.8051L37.9049 45.9118L37.877 46.4429L35.9827 46.3436C35.5519 46.321 35.2178 46.487 35.1936 46.9473C35.1735 47.3308 35.4482 47.7358 35.9616 47.7627L37.8028 47.8592L37.775 48.3903ZM36.9937 44.3278L35.3532 44.2418L35.3056 45.1506L34.8512 45.1268L34.8988 44.218L33.9959 44.1707L34.0231 43.6513L34.926 43.6987L35.0005 42.2765L35.4549 42.3003L35.3804 43.7225L36.9796 43.8063C37.3986 43.8283 37.5828 43.5894 37.6084 43.0996C37.6211 42.8576 37.5925 42.6135 37.539 42.3917L38.017 42.4168C38.0652 42.6264 38.097 42.924 38.0821 43.2072C38.0484 43.8505 37.7491 44.3674 36.9937 44.3278ZM38.309 38.1998L37.8546 38.176L37.9143 37.037L34.586 36.8626L34.5263 38.0015L34.0719 37.9777L34.1594 36.3076L37.9422 36.5059L38.0019 35.3669L38.4563 35.3908L38.309 38.1998ZM38.5887 33.8792C38.5587 34.4516 38.2038 34.9005 37.6491 34.8714C37.0354 34.8393 36.802 34.3241 36.708 33.6327L36.592 32.7982L36.4622 32.7914C36.1081 32.7728 35.8901 32.9803 35.8672 33.417C35.8465 33.8124 36.0276 34.0823 36.3643 34.2064L36.2085 34.6954C35.7094 34.5094 35.3735 34.0303 35.4082 33.3693C35.4456 32.6552 35.8048 32.2362 36.4658 32.2708L37.9529 32.3488C38.189 32.3611 38.2445 32.2043 38.2088 31.9834L38.6337 32.0057C38.6667 32.5045 38.5568 32.7946 38.2282 32.8543C38.4597 33.0677 38.6119 33.4366 38.5887 33.8792ZM37.5185 32.8467L37.0051 32.8198L37.0987 33.5171C37.1634 33.9761 37.2819 34.3137 37.6536 34.3332C37.9546 34.349 38.1434 34.134 38.162 33.7799C38.1867 33.3078 37.9139 32.8675 37.5185 32.8467ZM38.5247 28.7773C39.4276 28.8246 39.8983 29.441 39.8541 30.2849C39.8188 30.9576 39.4801 31.437 38.9046 31.5784L38.7417 31.0728C39.1427 30.9873 39.3892 30.6866 39.4115 30.2617C39.4402 29.7129 39.1814 29.3443 38.5382 29.3105L38.19 29.2923C38.4823 29.4733 38.6775 29.8149 38.6549 30.2457C38.6116 31.0719 37.8902 31.5134 37.0463 31.4692C36.2083 31.4253 35.537 30.9108 35.5803 30.0846C35.6029 29.6538 35.8326 29.3344 36.1423 29.185L35.6879 29.1612L35.7157 28.6301L38.5247 28.7773ZM37.1163 29.2301C36.4258 29.1939 36.074 29.5838 36.0521 30.0028C36.0227 30.5634 36.4253 30.8981 37.0744 30.9322C37.7236 30.9662 38.1649 30.6757 38.1942 30.1151C38.2162 29.6961 37.9071 29.2716 37.2284 29.236L37.1163 29.2301Z" fill="white"/>
<rect x="23.7053" y="21.9121" width="38.5927" height="80.0798" rx="2.21603" transform="rotate(3 23.7053 21.9121)" fill="#0E963F"/>
<path d="M27.3457 93.6181L27.9568 93.6501L27.784 96.9477L28.6648 96.9939L28.6293 97.671L25.9593 97.5311L25.9948 96.854L27.0022 96.9068L27.1072 94.9029L26.1273 94.8515L26.1582 94.2625L26.5563 94.2502C27.0425 94.2426 27.2713 94.089 27.3457 93.6181ZM30.4648 95.7854C30.528 94.5798 31.1221 93.7774 32.08 93.8276C33.0379 93.8778 33.5448 94.7379 33.4817 95.9435C33.4185 97.1492 32.8244 97.9516 31.8665 97.9014C30.9086 97.8512 30.4017 96.9911 30.4648 95.7854ZM31.2631 95.8273C31.2224 96.6035 31.4071 97.1873 31.9026 97.2133C32.398 97.2392 32.6427 96.6779 32.6834 95.9017C32.7241 95.1255 32.5394 94.5417 32.0439 94.5157C31.5485 94.4898 31.3038 95.0511 31.2631 95.8273ZM35.0934 94.9571C35.1234 94.3845 35.3919 94.0012 35.8434 94.0248C36.2948 94.0485 36.5217 94.4578 36.4917 95.0304C36.4617 95.6029 36.1932 95.9863 35.7418 95.9626C35.2904 95.939 35.0634 95.5296 35.0934 94.9571ZM34.9229 98.0009L37.745 94.1852L38.3781 94.2184L35.556 98.034L34.9229 98.0009ZM36.0128 95.0053C36.0298 94.6805 35.9788 94.4956 35.8191 94.4873C35.665 94.4792 35.5894 94.6574 35.5724 94.9822C35.5554 95.307 35.6122 95.4866 35.7663 95.4947C35.926 95.5031 35.9958 95.3301 36.0128 95.0053ZM38.202 97.2619C38.172 97.8344 37.9035 98.2178 37.4576 98.1944C37.0006 98.1705 36.7737 97.7611 36.8037 97.1886C36.8337 96.616 37.1022 96.2327 37.5591 96.2566C38.0051 96.28 38.232 96.6893 38.202 97.2619ZM37.2881 97.214C37.2711 97.5388 37.3222 97.7236 37.4818 97.732C37.636 97.7401 37.7115 97.5619 37.7286 97.2371C37.7456 96.9122 37.6888 96.7326 37.5346 96.7245C37.375 96.7162 37.3052 96.8892 37.2881 97.214Z" fill="#17211B"/>
<rect x="151.252" y="76.9043" width="91.6576" height="48.2408" rx="2.21603" transform="rotate(-177 151.252 76.9043)" fill="#74EFA3"/>
<path d="M137.778 32.7412L138.389 32.7732L138.216 36.0708L139.097 36.1169L139.061 36.7941L136.391 36.6541L136.427 35.977L137.434 36.0298L137.539 34.0259L136.559 33.9746L136.59 33.3855L136.988 33.3733C137.475 33.3656 137.703 33.212 137.778 32.7412ZM140.897 34.9085C140.96 33.7029 141.554 32.9004 142.512 32.9506C143.47 33.0008 143.977 33.861 143.914 35.0666C143.851 36.2722 143.257 37.0746 142.299 37.0244C141.341 36.9742 140.834 36.1141 140.897 34.9085ZM141.695 34.9503C141.655 35.7265 141.839 36.3103 142.335 36.3363C142.83 36.3623 143.075 35.801 143.116 35.0248C143.156 34.2485 142.972 33.6647 142.476 33.6388C141.981 33.6128 141.736 34.1741 141.695 34.9503ZM145.526 34.0801C145.556 33.5076 145.824 33.1242 146.275 33.1479C146.727 33.1715 146.954 33.5809 146.924 34.1534C146.894 34.7259 146.625 35.1093 146.174 35.0857C145.723 35.062 145.496 34.6527 145.526 34.0801ZM145.355 37.1239L148.177 33.3082L148.81 33.3414L145.988 37.1571L145.355 37.1239ZM146.445 34.1283C146.462 33.8035 146.411 33.6187 146.251 33.6103C146.097 33.6022 146.022 33.7804 146.005 34.1052C145.987 34.43 146.044 34.6097 146.198 34.6177C146.358 34.6261 146.428 34.4531 146.445 34.1283ZM148.634 36.3849C148.604 36.9574 148.336 37.3408 147.89 37.3175C147.433 37.2935 147.206 36.8842 147.236 36.3116C147.266 35.7391 147.534 35.3557 147.991 35.3797C148.437 35.403 148.664 35.8124 148.634 36.3849ZM147.72 36.337C147.703 36.6618 147.754 36.8467 147.914 36.855C148.068 36.8631 148.144 36.6849 148.161 36.3601C148.178 36.0353 148.121 35.8557 147.967 35.8476C147.807 35.8392 147.737 36.0122 147.72 36.337Z" fill="#17211B"/>
<rect x="149.585" y="108.699" width="91.6576" height="31.839" rx="2.21603" transform="rotate(-177 149.585 108.699)" fill="#C6FFC1"/>
<path d="M134.293 99.2226L134.905 99.2546L134.732 102.552L135.613 102.598L135.577 103.276L132.907 103.136L132.943 102.458L133.95 102.511L134.055 100.507L133.075 100.456L133.106 99.867L133.504 99.8547C133.99 99.8471 134.219 99.6935 134.293 99.2226ZM137.413 101.39C137.476 100.184 138.07 99.3819 139.028 99.4321C139.986 99.4823 140.493 100.342 140.429 101.548C140.366 102.754 139.772 103.556 138.814 103.506C137.856 103.456 137.349 102.596 137.413 101.39ZM138.211 101.432C138.17 102.208 138.355 102.792 138.85 102.818C139.346 102.844 139.59 102.282 139.631 101.506C139.672 100.73 139.487 100.146 138.992 100.12C138.496 100.094 138.252 100.656 138.211 101.432ZM142.041 100.562C142.071 99.989 142.34 99.6057 142.791 99.6293C143.243 99.653 143.47 100.062 143.439 100.635C143.409 101.207 143.141 101.591 142.69 101.567C142.238 101.543 142.011 101.134 142.041 100.562ZM141.871 103.605L144.693 99.7897L145.326 99.8229L142.504 103.639L141.871 103.605ZM142.961 100.61C142.978 100.285 142.927 100.1 142.767 100.092C142.613 100.084 142.537 100.262 142.52 100.587C142.503 100.911 142.56 101.091 142.714 101.099C142.874 101.108 142.944 100.935 142.961 100.61ZM145.15 102.866C145.12 103.439 144.851 103.822 144.405 103.799C143.948 103.775 143.721 103.366 143.751 102.793C143.781 102.221 144.05 101.837 144.507 101.861C144.953 101.884 145.18 102.294 145.15 102.866ZM144.236 102.818C144.219 103.143 144.27 103.328 144.43 103.336C144.584 103.345 144.659 103.166 144.676 102.842C144.693 102.517 144.637 102.337 144.482 102.329C144.323 102.321 144.253 102.494 144.236 102.818Z" fill="#17211B"/>
</g>
<g filter="url(#filter1_d_16743_22418)">
<rect x="3" y="3.7627" width="138" height="95" rx="5.7889" fill="#F2F7F4" shape-rendering="crispEdges"/>
<rect x="5" y="5.7627" width="134" height="91" rx="3.7889" stroke="white" stroke-width="4" shape-rendering="crispEdges"/>
<line x1="14.4175" y1="80.9124" x2="129.715" y2="80.9124" stroke="black" stroke-width="1.13233"/>
<path opacity="0.1" d="M16.4907 58.9467V30.6061L52.7926 30.3776L127.373 15.8887V46.2704L70.527 53.8872L16.4907 58.9467Z" fill="#10A446"/>
<path opacity="0.1" d="M16.5442 53.1269L16.5437 38.4223L53.2477 37.7609L127.416 21.7206L127.416 37.8508L57.5467 50.8122L16.5442 53.1269Z" fill="#10A446"/>
<path d="M15.7559 44.0537L55.1694 43.9034L128.043 29.2158" stroke="#0E963F" stroke-width="1.13233"/>
<path d="M17.9312 73.7636L64.5213 74.5024L126.241 65.3271" stroke="#86F8B2" stroke-width="2.26466" stroke-dasharray="3 6"/>
<circle cx="17.072" cy="64.325" r="2.83082" fill="#50E387"/>
<circle cx="53.8552" cy="63.0642" r="2.83082" fill="#50E387"/>
<circle cx="127.592" cy="51.7547" r="2.83082" fill="#50E387"/>
<circle cx="127.592" cy="65.2918" r="2.83082" fill="#86F8B2"/>
<circle cx="63.7302" cy="74.4841" r="2.83082" fill="#86F8B2"/>
<circle cx="17.072" cy="73.6101" r="2.83082" fill="#86F8B2"/>
<path d="M18.1301 64.2665L54.4961 63.4169L127.404 51.7002" stroke="#50E387" stroke-width="2" stroke-dasharray="2 6"/>
<circle cx="127.592" cy="29.7439" r="2.83082" fill="#0E963F"/>
<circle cx="55.2622" cy="43.9382" r="2.83082" fill="#0E963F"/>
<circle cx="17.072" cy="43.6843" r="2.83082" fill="#0E963F"/>
</g>
<g filter="url(#filter2_d_16743_22418)">
<rect x="3" y="0.762695" width="138" height="98" rx="5.7889" fill="white" shape-rendering="crispEdges"/>
<rect x="130" y="89.7627" width="116" height="9" rx="2.29684" transform="rotate(180 130 89.7627)" fill="#F1F9F4"/>
<path d="M35.6902 74.7627L35.6902 75.0725L36.3098 75.0725L36.3098 74.7627L36 74.7627L35.6902 74.7627ZM36.3098 16.7627C36.3098 16.5916 36.1711 16.4529 36 16.4529C35.8289 16.4529 35.6902 16.5916 35.6902 16.7627L36 16.7627L36.3098 16.7627ZM36.3098 73.5544C36.3098 73.3833 36.1711 73.2446 36 73.2446C35.8289 73.2446 35.6902 73.3833 35.6902 73.5544L36 73.5544L36.3098 73.5544ZM35.6902 71.1377C35.6902 71.3088 35.8289 71.4475 36 71.4475C36.1711 71.4475 36.3098 71.3088 36.3098 71.1377L36 71.1377L35.6902 71.1377ZM36.3098 68.721C36.3098 68.5499 36.1711 68.4112 36 68.4112C35.8289 68.4112 35.6902 68.5499 35.6902 68.721L36 68.721L36.3098 68.721ZM35.6902 66.3044C35.6902 66.4754 35.8289 66.6141 36 66.6141C36.1711 66.6141 36.3098 66.4754 36.3098 66.3044L36 66.3044L35.6902 66.3044ZM36.3098 63.8877C36.3098 63.7166 36.1711 63.5779 36 63.5779C35.8289 63.5779 35.6902 63.7166 35.6902 63.8877L36 63.8877L36.3098 63.8877ZM35.6902 61.471C35.6902 61.6421 35.8289 61.7808 36 61.7808C36.1711 61.7808 36.3098 61.6421 36.3098 61.471L36 61.471L35.6902 61.471ZM36.3098 59.0544C36.3098 58.8833 36.1711 58.7446 36 58.7446C35.8289 58.7446 35.6902 58.8833 35.6902 59.0544L36 59.0544L36.3098 59.0544ZM35.6902 56.6377C35.6902 56.8088 35.8289 56.9475 36 56.9475C36.1711 56.9475 36.3098 56.8088 36.3098 56.6377L36 56.6377L35.6902 56.6377ZM36.3098 54.221C36.3098 54.0499 36.1711 53.9112 36 53.9112C35.8289 53.9112 35.6902 54.0499 35.6902 54.221L36 54.221L36.3098 54.221ZM35.6902 51.8044C35.6902 51.9754 35.8289 52.1141 36 52.1141C36.1711 52.1141 36.3098 51.9754 36.3098 51.8044L36 51.8044L35.6902 51.8044ZM36.3098 49.3877C36.3098 49.2166 36.1711 49.0779 36 49.0779C35.8289 49.0779 35.6902 49.2166 35.6902 49.3877L36 49.3877L36.3098 49.3877ZM35.6902 46.971C35.6902 47.1421 35.8289 47.2808 36 47.2808C36.1711 47.2808 36.3098 47.1421 36.3098 46.971L36 46.971L35.6902 46.971ZM36.3098 44.5544C36.3098 44.3833 36.1711 44.2446 36 44.2446C35.8289 44.2446 35.6902 44.3833 35.6902 44.5544L36 44.5544L36.3098 44.5544ZM35.6902 42.1377C35.6902 42.3088 35.8289 42.4475 36 42.4475C36.1711 42.4475 36.3098 42.3088 36.3098 42.1377L36 42.1377L35.6902 42.1377ZM36.3098 39.721C36.3098 39.5499 36.1711 39.4112 36 39.4112C35.8289 39.4112 35.6902 39.5499 35.6902 39.721L36 39.721L36.3098 39.721ZM35.6902 37.3044C35.6902 37.4754 35.8289 37.6141 36 37.6141C36.1711 37.6141 36.3098 37.4754 36.3098 37.3044L36 37.3044L35.6902 37.3044ZM36.3098 34.8877C36.3098 34.7166 36.1711 34.5779 36 34.5779C35.8289 34.5779 35.6902 34.7166 35.6902 34.8877L36 34.8877L36.3098 34.8877ZM35.6902 32.471C35.6902 32.6421 35.8289 32.7808 36 32.7808C36.1711 32.7808 36.3098 32.6421 36.3098 32.471L36 32.471L35.6902 32.471ZM36.3098 30.0544C36.3098 29.8833 36.1711 29.7446 36 29.7446C35.8289 29.7446 35.6902 29.8833 35.6902 30.0544L36 30.0544L36.3098 30.0544ZM35.6902 27.6377C35.6902 27.8088 35.8289 27.9475 36 27.9475C36.1711 27.9475 36.3098 27.8088 36.3098 27.6377L36 27.6377L35.6902 27.6377ZM36.3098 25.221C36.3098 25.0499 36.1711 24.9112 36 24.9112C35.8289 24.9112 35.6902 25.0499 35.6902 25.221L36 25.221L36.3098 25.221ZM35.6902 22.8044C35.6902 22.9754 35.8289 23.1141 36 23.1141C36.1711 23.1141 36.3098 22.9754 36.3098 22.8044L36 22.8044L35.6902 22.8044ZM36.3098 20.3877C36.3098 20.2166 36.1711 20.0779 36 20.0779C35.8289 20.0779 35.6902 20.2166 35.6902 20.3877L36 20.3877L36.3098 20.3877ZM35.6902 17.971C35.6902 18.1421 35.8289 18.2808 36 18.2808C36.1711 18.2808 36.3098 18.1421 36.3098 17.971L36 17.971L35.6902 17.971ZM36 74.7627L36.3098 74.7627L36.3098 73.5544L36 73.5544L35.6902 73.5544L35.6902 74.7627L36 74.7627ZM36 71.1377L36.3098 71.1377L36.3098 68.721L36 68.721L35.6902 68.721L35.6902 71.1377L36 71.1377ZM36 66.3044L36.3098 66.3044L36.3098 63.8877L36 63.8877L35.6902 63.8877L35.6902 66.3044L36 66.3044ZM36 61.471L36.3098 61.471L36.3098 59.0544L36 59.0544L35.6902 59.0544L35.6902 61.471L36 61.471ZM36 56.6377L36.3098 56.6377L36.3098 54.221L36 54.221L35.6902 54.221L35.6902 56.6377L36 56.6377ZM36 51.8044L36.3098 51.8044L36.3098 49.3877L36 49.3877L35.6902 49.3877L35.6902 51.8044L36 51.8044ZM36 46.971L36.3098 46.971L36.3098 44.5544L36 44.5544L35.6902 44.5544L35.6902 46.971L36 46.971ZM36 42.1377L36.3098 42.1377L36.3098 39.721L36 39.721L35.6902 39.721L35.6902 42.1377L36 42.1377ZM36 37.3044L36.3098 37.3044L36.3098 34.8877L36 34.8877L35.6902 34.8877L35.6902 37.3044L36 37.3044ZM36 32.471L36.3098 32.471L36.3098 30.0544L36 30.0544L35.6902 30.0544L35.6902 32.471L36 32.471ZM36 27.6377L36.3098 27.6377L36.3098 25.221L36 25.221L35.6902 25.221L35.6902 27.6377L36 27.6377ZM36 22.8044L36.3098 22.8044L36.3098 20.3877L36 20.3877L35.6902 20.3877L35.6902 22.8044L36 22.8044ZM36 17.971L36.3098 17.971L36.3098 16.7627L36 16.7627L35.6902 16.7627L35.6902 17.971L36 17.971Z" fill="#D8E8DE"/>
<path d="M55.6902 74.7627L55.6902 75.0725L56.3098 75.0725L56.3098 74.7627L56 74.7627L55.6902 74.7627ZM56.3098 16.7627C56.3098 16.5916 56.1711 16.4529 56 16.4529C55.8289 16.4529 55.6902 16.5916 55.6902 16.7627L56 16.7627L56.3098 16.7627ZM56.3098 73.5544C56.3098 73.3833 56.1711 73.2446 56 73.2446C55.8289 73.2446 55.6902 73.3833 55.6902 73.5544L56 73.5544L56.3098 73.5544ZM55.6902 71.1377C55.6902 71.3088 55.8289 71.4475 56 71.4475C56.1711 71.4475 56.3098 71.3088 56.3098 71.1377L56 71.1377L55.6902 71.1377ZM56.3098 68.721C56.3098 68.5499 56.1711 68.4112 56 68.4112C55.8289 68.4112 55.6902 68.5499 55.6902 68.721L56 68.721L56.3098 68.721ZM55.6902 66.3044C55.6902 66.4754 55.8289 66.6141 56 66.6141C56.1711 66.6141 56.3098 66.4754 56.3098 66.3044L56 66.3044L55.6902 66.3044ZM56.3098 63.8877C56.3098 63.7166 56.1711 63.5779 56 63.5779C55.8289 63.5779 55.6902 63.7166 55.6902 63.8877L56 63.8877L56.3098 63.8877ZM55.6902 61.471C55.6902 61.6421 55.8289 61.7808 56 61.7808C56.1711 61.7808 56.3098 61.6421 56.3098 61.471L56 61.471L55.6902 61.471ZM56.3098 59.0544C56.3098 58.8833 56.1711 58.7446 56 58.7446C55.8289 58.7446 55.6902 58.8833 55.6902 59.0544L56 59.0544L56.3098 59.0544ZM55.6902 56.6377C55.6902 56.8088 55.8289 56.9475 56 56.9475C56.1711 56.9475 56.3098 56.8088 56.3098 56.6377L56 56.6377L55.6902 56.6377ZM56.3098 54.221C56.3098 54.0499 56.1711 53.9112 56 53.9112C55.8289 53.9112 55.6902 54.0499 55.6902 54.221L56 54.221L56.3098 54.221ZM55.6902 51.8044C55.6902 51.9754 55.8289 52.1141 56 52.1141C56.1711 52.1141 56.3098 51.9754 56.3098 51.8044L56 51.8044L55.6902 51.8044ZM56.3098 49.3877C56.3098 49.2166 56.1711 49.0779 56 49.0779C55.8289 49.0779 55.6902 49.2166 55.6902 49.3877L56 49.3877L56.3098 49.3877ZM55.6902 46.971C55.6902 47.1421 55.8289 47.2808 56 47.2808C56.1711 47.2808 56.3098 47.1421 56.3098 46.971L56 46.971L55.6902 46.971ZM56.3098 44.5544C56.3098 44.3833 56.1711 44.2446 56 44.2446C55.8289 44.2446 55.6902 44.3833 55.6902 44.5544L56 44.5544L56.3098 44.5544ZM55.6902 42.1377C55.6902 42.3088 55.8289 42.4475 56 42.4475C56.1711 42.4475 56.3098 42.3088 56.3098 42.1377L56 42.1377L55.6902 42.1377ZM56.3098 39.721C56.3098 39.5499 56.1711 39.4112 56 39.4112C55.8289 39.4112 55.6902 39.5499 55.6902 39.721L56 39.721L56.3098 39.721ZM55.6902 37.3044C55.6902 37.4754 55.8289 37.6141 56 37.6141C56.1711 37.6141 56.3098 37.4754 56.3098 37.3044L56 37.3044L55.6902 37.3044ZM56.3098 34.8877C56.3098 34.7166 56.1711 34.5779 56 34.5779C55.8289 34.5779 55.6902 34.7166 55.6902 34.8877L56 34.8877L56.3098 34.8877ZM55.6902 32.471C55.6902 32.6421 55.8289 32.7808 56 32.7808C56.1711 32.7808 56.3098 32.6421 56.3098 32.471L56 32.471L55.6902 32.471ZM56.3098 30.0544C56.3098 29.8833 56.1711 29.7446 56 29.7446C55.8289 29.7446 55.6902 29.8833 55.6902 30.0544L56 30.0544L56.3098 30.0544ZM55.6902 27.6377C55.6902 27.8088 55.8289 27.9475 56 27.9475C56.1711 27.9475 56.3098 27.8088 56.3098 27.6377L56 27.6377L55.6902 27.6377ZM56.3098 25.221C56.3098 25.0499 56.1711 24.9112 56 24.9112C55.8289 24.9112 55.6902 25.0499 55.6902 25.221L56 25.221L56.3098 25.221ZM55.6902 22.8044C55.6902 22.9754 55.8289 23.1141 56 23.1141C56.1711 23.1141 56.3098 22.9754 56.3098 22.8044L56 22.8044L55.6902 22.8044ZM56.3098 20.3877C56.3098 20.2166 56.1711 20.0779 56 20.0779C55.8289 20.0779 55.6902 20.2166 55.6902 20.3877L56 20.3877L56.3098 20.3877ZM55.6902 17.971C55.6902 18.1421 55.8289 18.2808 56 18.2808C56.1711 18.2808 56.3098 18.1421 56.3098 17.971L56 17.971L55.6902 17.971ZM56 74.7627L56.3098 74.7627L56.3098 73.5544L56 73.5544L55.6902 73.5544L55.6902 74.7627L56 74.7627ZM56 71.1377L56.3098 71.1377L56.3098 68.721L56 68.721L55.6902 68.721L55.6902 71.1377L56 71.1377ZM56 66.3044L56.3098 66.3044L56.3098 63.8877L56 63.8877L55.6902 63.8877L55.6902 66.3044L56 66.3044ZM56 61.471L56.3098 61.471L56.3098 59.0544L56 59.0544L55.6902 59.0544L55.6902 61.471L56 61.471ZM56 56.6377L56.3098 56.6377L56.3098 54.221L56 54.221L55.6902 54.221L55.6902 56.6377L56 56.6377ZM56 51.8044L56.3098 51.8044L56.3098 49.3877L56 49.3877L55.6902 49.3877L55.6902 51.8044L56 51.8044ZM56 46.971L56.3098 46.971L56.3098 44.5544L56 44.5544L55.6902 44.5544L55.6902 46.971L56 46.971ZM56 42.1377L56.3098 42.1377L56.3098 39.721L56 39.721L55.6902 39.721L55.6902 42.1377L56 42.1377ZM56 37.3044L56.3098 37.3044L56.3098 34.8877L56 34.8877L55.6902 34.8877L55.6902 37.3044L56 37.3044ZM56 32.471L56.3098 32.471L56.3098 30.0544L56 30.0544L55.6902 30.0544L55.6902 32.471L56 32.471ZM56 27.6377L56.3098 27.6377L56.3098 25.221L56 25.221L55.6902 25.221L55.6902 27.6377L56 27.6377ZM56 22.8044L56.3098 22.8044L56.3098 20.3877L56 20.3877L55.6902 20.3877L55.6902 22.8044L56 22.8044ZM56 17.971L56.3098 17.971L56.3098 16.7627L56 16.7627L55.6902 16.7627L55.6902 17.971L56 17.971Z" fill="#D8E8DE"/>
<path d="M75.6902 74.7627L75.6902 75.0725L76.3098 75.0725L76.3098 74.7627L76 74.7627L75.6902 74.7627ZM76.3098 16.7627C76.3098 16.5916 76.1711 16.4529 76 16.4529C75.8289 16.4529 75.6902 16.5916 75.6902 16.7627L76 16.7627L76.3098 16.7627ZM76.3098 73.5544C76.3098 73.3833 76.1711 73.2446 76 73.2446C75.8289 73.2446 75.6902 73.3833 75.6902 73.5544L76 73.5544L76.3098 73.5544ZM75.6902 71.1377C75.6902 71.3088 75.8289 71.4475 76 71.4475C76.1711 71.4475 76.3098 71.3088 76.3098 71.1377L76 71.1377L75.6902 71.1377ZM76.3098 68.721C76.3098 68.5499 76.1711 68.4112 76 68.4112C75.8289 68.4112 75.6902 68.5499 75.6902 68.721L76 68.721L76.3098 68.721ZM75.6902 66.3044C75.6902 66.4754 75.8289 66.6141 76 66.6141C76.1711 66.6141 76.3098 66.4754 76.3098 66.3044L76 66.3044L75.6902 66.3044ZM76.3098 63.8877C76.3098 63.7166 76.1711 63.5779 76 63.5779C75.8289 63.5779 75.6902 63.7166 75.6902 63.8877L76 63.8877L76.3098 63.8877ZM75.6902 61.471C75.6902 61.6421 75.8289 61.7808 76 61.7808C76.1711 61.7808 76.3098 61.6421 76.3098 61.471L76 61.471L75.6902 61.471ZM76.3098 59.0544C76.3098 58.8833 76.1711 58.7446 76 58.7446C75.8289 58.7446 75.6902 58.8833 75.6902 59.0544L76 59.0544L76.3098 59.0544ZM75.6902 56.6377C75.6902 56.8088 75.8289 56.9475 76 56.9475C76.1711 56.9475 76.3098 56.8088 76.3098 56.6377L76 56.6377L75.6902 56.6377ZM76.3098 54.221C76.3098 54.0499 76.1711 53.9112 76 53.9112C75.8289 53.9112 75.6902 54.0499 75.6902 54.221L76 54.221L76.3098 54.221ZM75.6902 51.8044C75.6902 51.9754 75.8289 52.1141 76 52.1141C76.1711 52.1141 76.3098 51.9754 76.3098 51.8044L76 51.8044L75.6902 51.8044ZM76.3098 49.3877C76.3098 49.2166 76.1711 49.0779 76 49.0779C75.8289 49.0779 75.6902 49.2166 75.6902 49.3877L76 49.3877L76.3098 49.3877ZM75.6902 46.971C75.6902 47.1421 75.8289 47.2808 76 47.2808C76.1711 47.2808 76.3098 47.1421 76.3098 46.971L76 46.971L75.6902 46.971ZM76.3098 44.5544C76.3098 44.3833 76.1711 44.2446 76 44.2446C75.8289 44.2446 75.6902 44.3833 75.6902 44.5544L76 44.5544L76.3098 44.5544ZM75.6902 42.1377C75.6902 42.3088 75.8289 42.4475 76 42.4475C76.1711 42.4475 76.3098 42.3088 76.3098 42.1377L76 42.1377L75.6902 42.1377ZM76.3098 39.721C76.3098 39.5499 76.1711 39.4112 76 39.4112C75.8289 39.4112 75.6902 39.5499 75.6902 39.721L76 39.721L76.3098 39.721ZM75.6902 37.3044C75.6902 37.4754 75.8289 37.6141 76 37.6141C76.1711 37.6141 76.3098 37.4754 76.3098 37.3044L76 37.3044L75.6902 37.3044ZM76.3098 34.8877C76.3098 34.7166 76.1711 34.5779 76 34.5779C75.8289 34.5779 75.6902 34.7166 75.6902 34.8877L76 34.8877L76.3098 34.8877ZM75.6902 32.471C75.6902 32.6421 75.8289 32.7808 76 32.7808C76.1711 32.7808 76.3098 32.6421 76.3098 32.471L76 32.471L75.6902 32.471ZM76.3098 30.0544C76.3098 29.8833 76.1711 29.7446 76 29.7446C75.8289 29.7446 75.6902 29.8833 75.6902 30.0544L76 30.0544L76.3098 30.0544ZM75.6902 27.6377C75.6902 27.8088 75.8289 27.9475 76 27.9475C76.1711 27.9475 76.3098 27.8088 76.3098 27.6377L76 27.6377L75.6902 27.6377ZM76.3098 25.221C76.3098 25.0499 76.1711 24.9112 76 24.9112C75.8289 24.9112 75.6902 25.0499 75.6902 25.221L76 25.221L76.3098 25.221ZM75.6902 22.8044C75.6902 22.9754 75.8289 23.1141 76 23.1141C76.1711 23.1141 76.3098 22.9754 76.3098 22.8044L76 22.8044L75.6902 22.8044ZM76.3098 20.3877C76.3098 20.2166 76.1711 20.0779 76 20.0779C75.8289 20.0779 75.6902 20.2166 75.6902 20.3877L76 20.3877L76.3098 20.3877ZM75.6902 17.971C75.6902 18.1421 75.8289 18.2808 76 18.2808C76.1711 18.2808 76.3098 18.1421 76.3098 17.971L76 17.971L75.6902 17.971ZM76 74.7627L76.3098 74.7627L76.3098 73.5544L76 73.5544L75.6902 73.5544L75.6902 74.7627L76 74.7627ZM76 71.1377L76.3098 71.1377L76.3098 68.721L76 68.721L75.6902 68.721L75.6902 71.1377L76 71.1377ZM76 66.3044L76.3098 66.3044L76.3098 63.8877L76 63.8877L75.6902 63.8877L75.6902 66.3044L76 66.3044ZM76 61.471L76.3098 61.471L76.3098 59.0544L76 59.0544L75.6902 59.0544L75.6902 61.471L76 61.471ZM76 56.6377L76.3098 56.6377L76.3098 54.221L76 54.221L75.6902 54.221L75.6902 56.6377L76 56.6377ZM76 51.8044L76.3098 51.8044L76.3098 49.3877L76 49.3877L75.6902 49.3877L75.6902 51.8044L76 51.8044ZM76 46.971L76.3098 46.971L76.3098 44.5544L76 44.5544L75.6902 44.5544L75.6902 46.971L76 46.971ZM76 42.1377L76.3098 42.1377L76.3098 39.721L76 39.721L75.6902 39.721L75.6902 42.1377L76 42.1377ZM76 37.3044L76.3098 37.3044L76.3098 34.8877L76 34.8877L75.6902 34.8877L75.6902 37.3044L76 37.3044ZM76 32.471L76.3098 32.471L76.3098 30.0544L76 30.0544L75.6902 30.0544L75.6902 32.471L76 32.471ZM76 27.6377L76.3098 27.6377L76.3098 25.221L76 25.221L75.6902 25.221L75.6902 27.6377L76 27.6377ZM76 22.8044L76.3098 22.8044L76.3098 20.3877L76 20.3877L75.6902 20.3877L75.6902 22.8044L76 22.8044ZM76 17.971L76.3098 17.971L76.3098 16.7627L76 16.7627L75.6902 16.7627L75.6902 17.971L76 17.971Z" fill="#D8E8DE"/>
<path d="M95.6902 74.7627L95.6902 75.0725L96.3098 75.0725L96.3098 74.7627L96 74.7627L95.6902 74.7627ZM96.3098 16.7627C96.3098 16.5916 96.1711 16.4529 96 16.4529C95.8289 16.4529 95.6902 16.5916 95.6902 16.7627L96 16.7627L96.3098 16.7627ZM96.3098 73.5544C96.3098 73.3833 96.1711 73.2446 96 73.2446C95.8289 73.2446 95.6902 73.3833 95.6902 73.5544L96 73.5544L96.3098 73.5544ZM95.6902 71.1377C95.6902 71.3088 95.8289 71.4475 96 71.4475C96.1711 71.4475 96.3098 71.3088 96.3098 71.1377L96 71.1377L95.6902 71.1377ZM96.3098 68.721C96.3098 68.5499 96.1711 68.4112 96 68.4112C95.8289 68.4112 95.6902 68.5499 95.6902 68.721L96 68.721L96.3098 68.721ZM95.6902 66.3044C95.6902 66.4754 95.8289 66.6141 96 66.6141C96.1711 66.6141 96.3098 66.4754 96.3098 66.3044L96 66.3044L95.6902 66.3044ZM96.3098 63.8877C96.3098 63.7166 96.1711 63.5779 96 63.5779C95.8289 63.5779 95.6902 63.7166 95.6902 63.8877L96 63.8877L96.3098 63.8877ZM95.6902 61.471C95.6902 61.6421 95.8289 61.7808 96 61.7808C96.1711 61.7808 96.3098 61.6421 96.3098 61.471L96 61.471L95.6902 61.471ZM96.3098 59.0544C96.3098 58.8833 96.1711 58.7446 96 58.7446C95.8289 58.7446 95.6902 58.8833 95.6902 59.0544L96 59.0544L96.3098 59.0544ZM95.6902 56.6377C95.6902 56.8088 95.8289 56.9475 96 56.9475C96.1711 56.9475 96.3098 56.8088 96.3098 56.6377L96 56.6377L95.6902 56.6377ZM96.3098 54.221C96.3098 54.0499 96.1711 53.9112 96 53.9112C95.8289 53.9112 95.6902 54.0499 95.6902 54.221L96 54.221L96.3098 54.221ZM95.6902 51.8044C95.6902 51.9754 95.8289 52.1141 96 52.1141C96.1711 52.1141 96.3098 51.9754 96.3098 51.8044L96 51.8044L95.6902 51.8044ZM96.3098 49.3877C96.3098 49.2166 96.1711 49.0779 96 49.0779C95.8289 49.0779 95.6902 49.2166 95.6902 49.3877L96 49.3877L96.3098 49.3877ZM95.6902 46.971C95.6902 47.1421 95.8289 47.2808 96 47.2808C96.1711 47.2808 96.3098 47.1421 96.3098 46.971L96 46.971L95.6902 46.971ZM96.3098 44.5544C96.3098 44.3833 96.1711 44.2446 96 44.2446C95.8289 44.2446 95.6902 44.3833 95.6902 44.5544L96 44.5544L96.3098 44.5544ZM95.6902 42.1377C95.6902 42.3088 95.8289 42.4475 96 42.4475C96.1711 42.4475 96.3098 42.3088 96.3098 42.1377L96 42.1377L95.6902 42.1377ZM96.3098 39.721C96.3098 39.5499 96.1711 39.4112 96 39.4112C95.8289 39.4112 95.6902 39.5499 95.6902 39.721L96 39.721L96.3098 39.721ZM95.6902 37.3044C95.6902 37.4754 95.8289 37.6141 96 37.6141C96.1711 37.6141 96.3098 37.4754 96.3098 37.3044L96 37.3044L95.6902 37.3044ZM96.3098 34.8877C96.3098 34.7166 96.1711 34.5779 96 34.5779C95.8289 34.5779 95.6902 34.7166 95.6902 34.8877L96 34.8877L96.3098 34.8877ZM95.6902 32.471C95.6902 32.6421 95.8289 32.7808 96 32.7808C96.1711 32.7808 96.3098 32.6421 96.3098 32.471L96 32.471L95.6902 32.471ZM96.3098 30.0544C96.3098 29.8833 96.1711 29.7446 96 29.7446C95.8289 29.7446 95.6902 29.8833 95.6902 30.0544L96 30.0544L96.3098 30.0544ZM95.6902 27.6377C95.6902 27.8088 95.8289 27.9475 96 27.9475C96.1711 27.9475 96.3098 27.8088 96.3098 27.6377L96 27.6377L95.6902 27.6377ZM96.3098 25.221C96.3098 25.0499 96.1711 24.9112 96 24.9112C95.8289 24.9112 95.6902 25.0499 95.6902 25.221L96 25.221L96.3098 25.221ZM95.6902 22.8044C95.6902 22.9754 95.8289 23.1141 96 23.1141C96.1711 23.1141 96.3098 22.9754 96.3098 22.8044L96 22.8044L95.6902 22.8044ZM96.3098 20.3877C96.3098 20.2166 96.1711 20.0779 96 20.0779C95.8289 20.0779 95.6902 20.2166 95.6902 20.3877L96 20.3877L96.3098 20.3877ZM95.6902 17.971C95.6902 18.1421 95.8289 18.2808 96 18.2808C96.1711 18.2808 96.3098 18.1421 96.3098 17.971L96 17.971L95.6902 17.971ZM96 74.7627L96.3098 74.7627L96.3098 73.5544L96 73.5544L95.6902 73.5544L95.6902 74.7627L96 74.7627ZM96 71.1377L96.3098 71.1377L96.3098 68.721L96 68.721L95.6902 68.721L95.6902 71.1377L96 71.1377ZM96 66.3044L96.3098 66.3044L96.3098 63.8877L96 63.8877L95.6902 63.8877L95.6902 66.3044L96 66.3044ZM96 61.471L96.3098 61.471L96.3098 59.0544L96 59.0544L95.6902 59.0544L95.6902 61.471L96 61.471ZM96 56.6377L96.3098 56.6377L96.3098 54.221L96 54.221L95.6902 54.221L95.6902 56.6377L96 56.6377ZM96 51.8044L96.3098 51.8044L96.3098 49.3877L96 49.3877L95.6902 49.3877L95.6902 51.8044L96 51.8044ZM96 46.971L96.3098 46.971L96.3098 44.5544L96 44.5544L95.6902 44.5544L95.6902 46.971L96 46.971ZM96 42.1377L96.3098 42.1377L96.3098 39.721L96 39.721L95.6902 39.721L95.6902 42.1377L96 42.1377ZM96 37.3044L96.3098 37.3044L96.3098 34.8877L96 34.8877L95.6902 34.8877L95.6902 37.3044L96 37.3044ZM96 32.471L96.3098 32.471L96.3098 30.0544L96 30.0544L95.6902 30.0544L95.6902 32.471L96 32.471ZM96 27.6377L96.3098 27.6377L96.3098 25.221L96 25.221L95.6902 25.221L95.6902 27.6377L96 27.6377ZM96 22.8044L96.3098 22.8044L96.3098 20.3877L96 20.3877L95.6902 20.3877L95.6902 22.8044L96 22.8044ZM96 17.971L96.3098 17.971L96.3098 16.7627L96 16.7627L95.6902 16.7627L95.6902 17.971L96 17.971Z" fill="#D8E8DE"/>
<path d="M115.69 74.7627L115.69 75.0725L116.31 75.0725L116.31 74.7627L116 74.7627L115.69 74.7627ZM116.31 16.7627C116.31 16.5916 116.171 16.4529 116 16.4529C115.829 16.4529 115.69 16.5916 115.69 16.7627L116 16.7627L116.31 16.7627ZM116.31 73.5544C116.31 73.3833 116.171 73.2446 116 73.2446C115.829 73.2446 115.69 73.3833 115.69 73.5544L116 73.5544L116.31 73.5544ZM115.69 71.1377C115.69 71.3088 115.829 71.4475 116 71.4475C116.171 71.4475 116.31 71.3088 116.31 71.1377L116 71.1377L115.69 71.1377ZM116.31 68.721C116.31 68.5499 116.171 68.4112 116 68.4112C115.829 68.4112 115.69 68.5499 115.69 68.721L116 68.721L116.31 68.721ZM115.69 66.3044C115.69 66.4754 115.829 66.6141 116 66.6141C116.171 66.6141 116.31 66.4754 116.31 66.3044L116 66.3044L115.69 66.3044ZM116.31 63.8877C116.31 63.7166 116.171 63.5779 116 63.5779C115.829 63.5779 115.69 63.7166 115.69 63.8877L116 63.8877L116.31 63.8877ZM115.69 61.471C115.69 61.6421 115.829 61.7808 116 61.7808C116.171 61.7808 116.31 61.6421 116.31 61.471L116 61.471L115.69 61.471ZM116.31 59.0544C116.31 58.8833 116.171 58.7446 116 58.7446C115.829 58.7446 115.69 58.8833 115.69 59.0544L116 59.0544L116.31 59.0544ZM115.69 56.6377C115.69 56.8088 115.829 56.9475 116 56.9475C116.171 56.9475 116.31 56.8088 116.31 56.6377L116 56.6377L115.69 56.6377ZM116.31 54.221C116.31 54.0499 116.171 53.9112 116 53.9112C115.829 53.9112 115.69 54.0499 115.69 54.221L116 54.221L116.31 54.221ZM115.69 51.8044C115.69 51.9754 115.829 52.1141 116 52.1141C116.171 52.1141 116.31 51.9754 116.31 51.8044L116 51.8044L115.69 51.8044ZM116.31 49.3877C116.31 49.2166 116.171 49.0779 116 49.0779C115.829 49.0779 115.69 49.2166 115.69 49.3877L116 49.3877L116.31 49.3877ZM115.69 46.971C115.69 47.1421 115.829 47.2808 116 47.2808C116.171 47.2808 116.31 47.1421 116.31 46.971L116 46.971L115.69 46.971ZM116.31 44.5544C116.31 44.3833 116.171 44.2446 116 44.2446C115.829 44.2446 115.69 44.3833 115.69 44.5544L116 44.5544L116.31 44.5544ZM115.69 42.1377C115.69 42.3088 115.829 42.4475 116 42.4475C116.171 42.4475 116.31 42.3088 116.31 42.1377L116 42.1377L115.69 42.1377ZM116.31 39.721C116.31 39.5499 116.171 39.4112 116 39.4112C115.829 39.4112 115.69 39.5499 115.69 39.721L116 39.721L116.31 39.721ZM115.69 37.3044C115.69 37.4754 115.829 37.6141 116 37.6141C116.171 37.6141 116.31 37.4754 116.31 37.3044L116 37.3044L115.69 37.3044ZM116.31 34.8877C116.31 34.7166 116.171 34.5779 116 34.5779C115.829 34.5779 115.69 34.7166 115.69 34.8877L116 34.8877L116.31 34.8877ZM115.69 32.471C115.69 32.6421 115.829 32.7808 116 32.7808C116.171 32.7808 116.31 32.6421 116.31 32.471L116 32.471L115.69 32.471ZM116.31 30.0544C116.31 29.8833 116.171 29.7446 116 29.7446C115.829 29.7446 115.69 29.8833 115.69 30.0544L116 30.0544L116.31 30.0544ZM115.69 27.6377C115.69 27.8088 115.829 27.9475 116 27.9475C116.171 27.9475 116.31 27.8088 116.31 27.6377L116 27.6377L115.69 27.6377ZM116.31 25.221C116.31 25.0499 116.171 24.9112 116 24.9112C115.829 24.9112 115.69 25.0499 115.69 25.221L116 25.221L116.31 25.221ZM115.69 22.8044C115.69 22.9754 115.829 23.1141 116 23.1141C116.171 23.1141 116.31 22.9754 116.31 22.8044L116 22.8044L115.69 22.8044ZM116.31 20.3877C116.31 20.2166 116.171 20.0779 116 20.0779C115.829 20.0779 115.69 20.2166 115.69 20.3877L116 20.3877L116.31 20.3877ZM115.69 17.971C115.69 18.1421 115.829 18.2808 116 18.2808C116.171 18.2808 116.31 18.1421 116.31 17.971L116 17.971L115.69 17.971ZM116 74.7627L116.31 74.7627L116.31 73.5544L116 73.5544L115.69 73.5544L115.69 74.7627L116 74.7627ZM116 71.1377L116.31 71.1377L116.31 68.721L116 68.721L115.69 68.721L115.69 71.1377L116 71.1377ZM116 66.3044L116.31 66.3044L116.31 63.8877L116 63.8877L115.69 63.8877L115.69 66.3044L116 66.3044ZM116 61.471L116.31 61.471L116.31 59.0544L116 59.0544L115.69 59.0544L115.69 61.471L116 61.471ZM116 56.6377L116.31 56.6377L116.31 54.221L116 54.221L115.69 54.221L115.69 56.6377L116 56.6377ZM116 51.8044L116.31 51.8044L116.31 49.3877L116 49.3877L115.69 49.3877L115.69 51.8044L116 51.8044ZM116 46.971L116.31 46.971L116.31 44.5544L116 44.5544L115.69 44.5544L115.69 46.971L116 46.971ZM116 42.1377L116.31 42.1377L116.31 39.721L116 39.721L115.69 39.721L115.69 42.1377L116 42.1377ZM116 37.3044L116.31 37.3044L116.31 34.8877L116 34.8877L115.69 34.8877L115.69 37.3044L116 37.3044ZM116 32.471L116.31 32.471L116.31 30.0544L116 30.0544L115.69 30.0544L115.69 32.471L116 32.471ZM116 27.6377L116.31 27.6377L116.31 25.221L116 25.221L115.69 25.221L115.69 27.6377L116 27.6377ZM116 22.8044L116.31 22.8044L116.31 20.3877L116 20.3877L115.69 20.3877L115.69 22.8044L116 22.8044ZM116 17.971L116.31 17.971L116.31 16.7627L116 16.7627L115.69 16.7627L115.69 17.971L116 17.971Z" fill="#D8E8DE"/>
<path opacity="0.1" d="M16.4907 52.8207V24.4802L52.7926 24.2516L127.373 9.7627V40.1444L70.527 47.7612L16.4907 52.8207Z" fill="#10A446"/>
<path opacity="0.1" d="M16.5442 47.0009L16.5437 32.2963L53.2477 31.635L127.416 15.5947L127.416 31.7248L57.5467 44.6862L16.5442 47.0009Z" fill="#10A446"/>
<path d="M15.7559 37.9277L55.1694 37.7774L128.043 23.0898" stroke="#0E963F" stroke-width="1.4"/>
<path d="M17.9312 67.6376L64.5213 68.3764L126.241 59.2012" stroke="#86F8B2" stroke-width="1.4"/>
<path d="M18.1301 58.1405L54.4961 57.2909L127.404 45.5742" stroke="#50E387" stroke-width="1.4"/>
<path d="M23.6483 87.2696C22.7399 87.222 22.1895 86.3485 22.2521 85.1539C22.3147 83.9593 22.9534 83.1481 23.8618 83.1957C24.7701 83.2434 25.3205 84.1168 25.2579 85.3114C25.2216 86.0051 24.9934 86.5672 24.6278 86.9069C24.7704 87.1352 25.0263 87.3087 25.3525 87.403L24.8546 87.9511C24.5022 87.8277 24.1638 87.545 24.0087 87.2388C23.8969 87.266 23.7749 87.2762 23.6483 87.2696ZM23.8245 83.9059C23.3511 83.8811 23.0817 84.3859 23.0393 85.1951C22.9969 86.0044 23.212 86.5346 23.6855 86.5594C24.1589 86.5842 24.4283 86.0794 24.4707 85.2702C24.5131 84.4609 24.298 83.9307 23.8245 83.9059ZM28.4819 83.4765L29.093 83.5085L28.9202 86.8061L29.801 86.8523L29.7655 87.5294L27.0955 87.3895L27.131 86.7124L28.1384 86.7652L28.2434 84.7613L27.2635 84.7099L27.2944 84.1209L27.6925 84.1086C28.1787 84.101 28.4076 83.9474 28.4819 83.4765Z" fill="#17211B"/>
<path d="M53.8851 86.8662C52.9767 86.8186 52.4263 85.9452 52.4889 84.7506C52.5515 83.556 53.1902 82.7448 54.0986 82.7924C55.0069 82.84 55.5573 83.7135 55.4947 84.9081C55.4584 85.6017 55.2302 86.1639 54.8646 86.5036C55.0072 86.7318 55.2631 86.9053 55.5894 86.9997L55.0914 87.5477C54.7391 87.4244 54.4006 87.1417 54.2455 86.8354C54.1337 86.8627 54.0117 86.8729 53.8851 86.8662ZM54.0614 83.5026C53.5879 83.4778 53.3186 83.9826 53.2762 84.7918C53.2337 85.6011 53.4488 86.1313 53.9223 86.1561C54.3957 86.1809 54.6651 85.6761 54.7075 84.8668C54.7499 84.0576 54.5348 83.5274 54.0614 83.5026ZM57.2108 86.356L58.2789 85.5674C58.8247 85.1599 59.2722 84.8356 59.2956 84.3897C59.3146 84.0263 59.1031 83.7447 58.7232 83.7248C58.3434 83.7049 58.0911 83.9898 58.0723 84.3476C58.0657 84.4742 58.0811 84.602 58.119 84.7199L57.3593 84.6801C57.3124 84.5231 57.3019 84.4066 57.3097 84.258C57.3498 83.4928 58.0106 82.9974 58.7813 83.0378C59.6236 83.082 60.136 83.6277 60.0967 84.3764C60.0624 85.0316 59.5705 85.464 59.0201 85.8547L58.3489 86.3384L60.0279 86.4264L59.9913 87.1255L57.1782 86.9781L57.2108 86.356Z" fill="#17211B"/>
<path d="M85.544 87.2696C84.6357 87.222 84.0852 86.3485 84.1479 85.1539C84.2105 83.9593 84.8492 83.1481 85.7575 83.1957C86.6659 83.2434 87.2163 84.1168 87.1537 85.3114C87.1173 86.0051 86.8891 86.5672 86.5235 86.9069C86.6661 87.1352 86.922 87.3087 87.2483 87.403L86.7504 87.9511C86.398 87.8277 86.0595 87.545 85.9044 87.2388C85.7926 87.266 85.6706 87.2762 85.544 87.2696ZM85.7203 83.9059C85.2468 83.8811 84.9775 84.3859 84.9351 85.1951C84.8927 86.0044 85.1078 86.5346 85.5812 86.5594C86.0547 86.5842 86.324 86.0794 86.3664 85.2702C86.4088 84.4609 86.1937 83.9307 85.7203 83.9059ZM90.2708 87.5173C89.4725 87.4754 88.8727 87.0189 88.8041 86.2204L89.5931 86.1238C89.6253 86.5616 89.9151 86.8252 90.295 86.8451C90.6748 86.865 90.9608 86.6757 90.9801 86.3069C90.9994 85.938 90.7157 85.7686 90.3028 85.747L89.923 85.727L89.9567 85.0829L90.3421 85.1031C90.722 85.123 90.9836 84.9767 91.0006 84.6519C91.0167 84.3436 90.8011 84.1391 90.4488 84.1206C90.0744 84.101 89.8079 84.3409 89.717 84.706L88.9785 84.579C89.113 83.9071 89.686 83.4016 90.5173 83.4452C91.3321 83.4879 91.8134 83.9934 91.7791 84.6485C91.7575 85.0614 91.4721 85.3445 91.1462 85.4544C91.5029 85.6001 91.7846 85.9129 91.7581 86.4194C91.7246 87.058 91.1516 87.5634 90.2708 87.5173Z" fill="#17211B"/>
<path d="M115.742 87.2696C114.834 87.222 114.283 86.3485 114.346 85.1539C114.409 83.9593 115.047 83.1481 115.956 83.1957C116.864 83.2434 117.415 84.1168 117.352 85.3114C117.316 86.0051 117.087 86.5672 116.722 86.9069C116.864 87.1352 117.12 87.3087 117.447 87.403L116.949 87.9511C116.596 87.8277 116.258 87.545 116.103 87.2388C115.991 87.266 115.869 87.2762 115.742 87.2696ZM115.919 83.9059C115.445 83.8811 115.176 84.3859 115.133 85.1951C115.091 86.0044 115.306 86.5346 115.779 86.5594C116.253 86.5842 116.522 86.0794 116.565 85.2702C116.607 84.4609 116.392 83.9307 115.919 83.9059ZM121.386 87.5046L120.654 87.4662L120.703 86.5249L118.92 86.4314L118.951 85.8258L120.597 83.4997L121.599 83.5522L121.475 85.9194L122.097 85.952L122.063 86.5961L121.435 86.5632L121.386 87.5046ZM119.713 85.8271L120.72 85.8799L120.806 84.2449L119.713 85.8271Z" fill="#17211B"/>
<g filter="url(#filter3_d_16743_22418)">
<rect x="14" y="35.7627" width="4.95649" height="4.95649" rx="2.47824" fill="#0E963F"/>
<rect x="13.0707" y="34.8334" width="6.81517" height="6.81517" rx="3.40759" stroke="white" stroke-width="1.85868"/>
</g>
<g filter="url(#filter4_d_16743_22418)">
<rect x="53" y="35.7627" width="4.95649" height="4.95649" rx="2.47824" fill="#0E963F"/>
<rect x="52.0707" y="34.8334" width="6.81517" height="6.81517" rx="3.40759" stroke="white" stroke-width="1.85868"/>
</g>
<g filter="url(#filter5_d_16743_22418)">
<rect x="125" y="20.7627" width="4.95649" height="4.95649" rx="2.47824" fill="#0E963F"/>
<rect x="124.071" y="19.8334" width="6.81517" height="6.81517" rx="3.40759" stroke="white" stroke-width="1.85868"/>
</g>
<g filter="url(#filter6_d_16743_22418)">
<rect x="52" y="55.7627" width="4.95649" height="4.95649" rx="2.47824" fill="#50E387"/>
<rect x="51.0707" y="54.8334" width="6.81517" height="6.81517" rx="3.40759" stroke="white" stroke-width="1.85868"/>
</g>
<g filter="url(#filter7_d_16743_22418)">
<rect x="14" y="55.7627" width="4.95649" height="4.95649" rx="2.47824" fill="#50E387"/>
<rect x="13.0707" y="54.8334" width="6.81517" height="6.81517" rx="3.40759" stroke="white" stroke-width="1.85868"/>
</g>
<g filter="url(#filter8_d_16743_22418)">
<rect x="125" y="43.7627" width="4.95649" height="4.95649" rx="2.47824" fill="#50E387"/>
<rect x="124.071" y="42.8334" width="6.81517" height="6.81517" rx="3.40759" stroke="white" stroke-width="1.85868"/>
</g>
<g filter="url(#filter9_d_16743_22418)">
<rect x="14" y="65.7627" width="4.95649" height="4.95649" rx="2.47824" fill="#86F8B2"/>
<rect x="13.0707" y="64.8334" width="6.81517" height="6.81517" rx="3.40759" stroke="white" stroke-width="1.85868"/>
</g>
<g filter="url(#filter10_d_16743_22418)">
<rect x="61" y="66.7627" width="4.95649" height="4.95649" rx="2.47824" fill="#86F8B2"/>
<rect x="60.0707" y="65.8334" width="6.81517" height="6.81517" rx="3.40759" stroke="white" stroke-width="1.85868"/>
</g>
<g filter="url(#filter11_d_16743_22418)">
<rect x="125" y="57.7627" width="4.95649" height="4.95649" rx="2.47824" fill="#86F8B2"/>
<rect x="124.071" y="56.8334" width="6.81517" height="6.81517" rx="3.40759" stroke="white" stroke-width="1.85868"/>
</g>
</g>
<defs>
<filter id="filter0_d_16743_22418" x="12.6775" y="17.8564" width="148.075" height="100.893" filterUnits="userSpaceOnUse" color-interpolation-filters="sRGB">
<feFlood flood-opacity="0" result="BackgroundImageFix"/>
<feColorMatrix in="SourceAlpha" type="matrix" values="0 0 0 0 0 0 0 0 0 0 0 0 0 0 0 0 0 0 127 0" result="hardAlpha"/>
<feOffset dy="2.75635"/>
<feGaussianBlur stdDeviation="1.37818"/>
<feComposite in2="hardAlpha" operator="out"/>
<feColorMatrix type="matrix" values="0 0 0 0 0 0 0 0 0 0 0 0 0 0 0 0 0 0 0.08 0"/>
<feBlend mode="normal" in2="BackgroundImageFix" result="effect1_dropShadow_16743_22418"/>
<feBlend mode="normal" in="SourceGraphic" in2="effect1_dropShadow_16743_22418" result="shape"/>
</filter>
<filter id="filter1_d_16743_22418" x="0.243649" y="3.7627" width="143.513" height="100.513" filterUnits="userSpaceOnUse" color-interpolation-filters="sRGB">
<feFlood flood-opacity="0" result="BackgroundImageFix"/>
<feColorMatrix in="SourceAlpha" type="matrix" values="0 0 0 0 0 0 0 0 0 0 0 0 0 0 0 0 0 0 127 0" result="hardAlpha"/>
<feOffset dy="2.75635"/>
<feGaussianBlur stdDeviation="1.37818"/>
<feComposite in2="hardAlpha" operator="out"/>
<feColorMatrix type="matrix" values="0 0 0 0 0 0 0 0 0 0 0 0 0 0 0 0 0 0 0.08 0"/>
<feBlend mode="normal" in2="BackgroundImageFix" result="effect1_dropShadow_16743_22418"/>
<feBlend mode="normal" in="SourceGraphic" in2="effect1_dropShadow_16743_22418" result="shape"/>
</filter>
<filter id="filter2_d_16743_22418" x="0.243649" y="0.762695" width="143.513" height="103.513" filterUnits="userSpaceOnUse" color-interpolation-filters="sRGB">
<feFlood flood-opacity="0" result="BackgroundImageFix"/>
<feColorMatrix in="SourceAlpha" type="matrix" values="0 0 0 0 0 0 0 0 0 0 0 0 0 0 0 0 0 0 127 0" result="hardAlpha"/>
<feOffset dy="2.75635"/>
<feGaussianBlur stdDeviation="1.37818"/>
<feComposite in2="hardAlpha" operator="out"/>
<feColorMatrix type="matrix" values="0 0 0 0 0 0 0 0 0 0 0 0 0 0 0 0 0 0 0.08 0"/>
<feBlend mode="normal" in2="BackgroundImageFix" result="effect1_dropShadow_16743_22418"/>
<feBlend mode="normal" in="SourceGraphic" in2="effect1_dropShadow_16743_22418" result="shape"/>
</filter>
<filter id="filter3_d_16743_22418" x="10.0464" y="33.206" width="12.8637" height="12.8637" filterUnits="userSpaceOnUse" color-interpolation-filters="sRGB">
<feFlood flood-opacity="0" result="BackgroundImageFix"/>
<feColorMatrix in="SourceAlpha" type="matrix" values="0 0 0 0 0 0 0 0 0 0 0 0 0 0 0 0 0 0 127 0" result="hardAlpha"/>
<feOffset dy="1.39663"/>
<feGaussianBlur stdDeviation="1.04747"/>
<feComposite in2="hardAlpha" operator="out"/>
<feColorMatrix type="matrix" values="0 0 0 0 0 0 0 0 0 0 0 0 0 0 0 0 0 0 0.03 0"/>
<feBlend mode="normal" in2="BackgroundImageFix" result="effect1_dropShadow_16743_22418"/>
<feBlend mode="normal" in="SourceGraphic" in2="effect1_dropShadow_16743_22418" result="shape"/>
</filter>
<filter id="filter4_d_16743_22418" x="49.0464" y="33.206" width="12.8637" height="12.8637" filterUnits="userSpaceOnUse" color-interpolation-filters="sRGB">
<feFlood flood-opacity="0" result="BackgroundImageFix"/>
<feColorMatrix in="SourceAlpha" type="matrix" values="0 0 0 0 0 0 0 0 0 0 0 0 0 0 0 0 0 0 127 0" result="hardAlpha"/>
<feOffset dy="1.39663"/>
<feGaussianBlur stdDeviation="1.04747"/>
<feComposite in2="hardAlpha" operator="out"/>
<feColorMatrix type="matrix" values="0 0 0 0 0 0 0 0 0 0 0 0 0 0 0 0 0 0 0.03 0"/>
<feBlend mode="normal" in2="BackgroundImageFix" result="effect1_dropShadow_16743_22418"/>
<feBlend mode="normal" in="SourceGraphic" in2="effect1_dropShadow_16743_22418" result="shape"/>
</filter>
<filter id="filter5_d_16743_22418" x="121.046" y="18.206" width="12.8637" height="12.8637" filterUnits="userSpaceOnUse" color-interpolation-filters="sRGB">
<feFlood flood-opacity="0" result="BackgroundImageFix"/>
<feColorMatrix in="SourceAlpha" type="matrix" values="0 0 0 0 0 0 0 0 0 0 0 0 0 0 0 0 0 0 127 0" result="hardAlpha"/>
<feOffset dy="1.39663"/>
<feGaussianBlur stdDeviation="1.04747"/>
<feComposite in2="hardAlpha" operator="out"/>
<feColorMatrix type="matrix" values="0 0 0 0 0 0 0 0 0 0 0 0 0 0 0 0 0 0 0.03 0"/>
<feBlend mode="normal" in2="BackgroundImageFix" result="effect1_dropShadow_16743_22418"/>
<feBlend mode="normal" in="SourceGraphic" in2="effect1_dropShadow_16743_22418" result="shape"/>
</filter>
<filter id="filter6_d_16743_22418" x="48.0464" y="53.206" width="12.8637" height="12.8637" filterUnits="userSpaceOnUse" color-interpolation-filters="sRGB">
<feFlood flood-opacity="0" result="BackgroundImageFix"/>
<feColorMatrix in="SourceAlpha" type="matrix" values="0 0 0 0 0 0 0 0 0 0 0 0 0 0 0 0 0 0 127 0" result="hardAlpha"/>
<feOffset dy="1.39663"/>
<feGaussianBlur stdDeviation="1.04747"/>
<feComposite in2="hardAlpha" operator="out"/>
<feColorMatrix type="matrix" values="0 0 0 0 0 0 0 0 0 0 0 0 0 0 0 0 0 0 0.03 0"/>
<feBlend mode="normal" in2="BackgroundImageFix" result="effect1_dropShadow_16743_22418"/>
<feBlend mode="normal" in="SourceGraphic" in2="effect1_dropShadow_16743_22418" result="shape"/>
</filter>
<filter id="filter7_d_16743_22418" x="10.0464" y="53.206" width="12.8637" height="12.8637" filterUnits="userSpaceOnUse" color-interpolation-filters="sRGB">
<feFlood flood-opacity="0" result="BackgroundImageFix"/>
<feColorMatrix in="SourceAlpha" type="matrix" values="0 0 0 0 0 0 0 0 0 0 0 0 0 0 0 0 0 0 127 0" result="hardAlpha"/>
<feOffset dy="1.39663"/>
<feGaussianBlur stdDeviation="1.04747"/>
<feComposite in2="hardAlpha" operator="out"/>
<feColorMatrix type="matrix" values="0 0 0 0 0 0 0 0 0 0 0 0 0 0 0 0 0 0 0.03 0"/>
<feBlend mode="normal" in2="BackgroundImageFix" result="effect1_dropShadow_16743_22418"/>
<feBlend mode="normal" in="SourceGraphic" in2="effect1_dropShadow_16743_22418" result="shape"/>
</filter>
<filter id="filter8_d_16743_22418" x="121.046" y="41.206" width="12.8637" height="12.8637" filterUnits="userSpaceOnUse" color-interpolation-filters="sRGB">
<feFlood flood-opacity="0" result="BackgroundImageFix"/>
<feColorMatrix in="SourceAlpha" type="matrix" values="0 0 0 0 0 0 0 0 0 0 0 0 0 0 0 0 0 0 127 0" result="hardAlpha"/>
<feOffset dy="1.39663"/>
<feGaussianBlur stdDeviation="1.04747"/>
<feComposite in2="hardAlpha" operator="out"/>
<feColorMatrix type="matrix" values="0 0 0 0 0 0 0 0 0 0 0 0 0 0 0 0 0 0 0.03 0"/>
<feBlend mode="normal" in2="BackgroundImageFix" result="effect1_dropShadow_16743_22418"/>
<feBlend mode="normal" in="SourceGraphic" in2="effect1_dropShadow_16743_22418" result="shape"/>
</filter>
<filter id="filter9_d_16743_22418" x="10.0464" y="63.206" width="12.8637" height="12.8637" filterUnits="userSpaceOnUse" color-interpolation-filters="sRGB">
<feFlood flood-opacity="0" result="BackgroundImageFix"/>
<feColorMatrix in="SourceAlpha" type="matrix" values="0 0 0 0 0 0 0 0 0 0 0 0 0 0 0 0 0 0 127 0" result="hardAlpha"/>
<feOffset dy="1.39663"/>
<feGaussianBlur stdDeviation="1.04747"/>
<feComposite in2="hardAlpha" operator="out"/>
<feColorMatrix type="matrix" values="0 0 0 0 0 0 0 0 0 0 0 0 0 0 0 0 0 0 0.03 0"/>
<feBlend mode="normal" in2="BackgroundImageFix" result="effect1_dropShadow_16743_22418"/>
<feBlend mode="normal" in="SourceGraphic" in2="effect1_dropShadow_16743_22418" result="shape"/>
</filter>
<filter id="filter10_d_16743_22418" x="57.0464" y="64.206" width="12.8637" height="12.8637" filterUnits="userSpaceOnUse" color-interpolation-filters="sRGB">
<feFlood flood-opacity="0" result="BackgroundImageFix"/>
<feColorMatrix in="SourceAlpha" type="matrix" values="0 0 0 0 0 0 0 0 0 0 0 0 0 0 0 0 0 0 127 0" result="hardAlpha"/>
<feOffset dy="1.39663"/>
<feGaussianBlur stdDeviation="1.04747"/>
<feComposite in2="hardAlpha" operator="out"/>
<feColorMatrix type="matrix" values="0 0 0 0 0 0 0 0 0 0 0 0 0 0 0 0 0 0 0.03 0"/>
<feBlend mode="normal" in2="BackgroundImageFix" result="effect1_dropShadow_16743_22418"/>
<feBlend mode="normal" in="SourceGraphic" in2="effect1_dropShadow_16743_22418" result="shape"/>
</filter>
<filter id="filter11_d_16743_22418" x="121.046" y="55.206" width="12.8637" height="12.8637" filterUnits="userSpaceOnUse" color-interpolation-filters="sRGB">
<feFlood flood-opacity="0" result="BackgroundImageFix"/>
<feColorMatrix in="SourceAlpha" type="matrix" values="0 0 0 0 0 0 0 0 0 0 0 0 0 0 0 0 0 0 127 0" result="hardAlpha"/>
<feOffset dy="1.39663"/>
<feGaussianBlur stdDeviation="1.04747"/>
<feComposite in2="hardAlpha" operator="out"/>
<feColorMatrix type="matrix" values="0 0 0 0 0 0 0 0 0 0 0 0 0 0 0 0 0 0 0.03 0"/>
<feBlend mode="normal" in2="BackgroundImageFix" result="effect1_dropShadow_16743_22418"/>
<feBlend mode="normal" in="SourceGraphic" in2="effect1_dropShadow_16743_22418" result="shape"/>
</filter>
</defs>
</svg>
