<svg width="146" height="164" viewBox="0 0 146 164" fill="none" xmlns="http://www.w3.org/2000/svg">
<g filter="url(#filter0_d_3132_301)">
<g clip-path="url(#clip0_3132_301)">
<rect x="2.52441" y="27.2607" width="113.759" height="131.351" rx="7.03664" transform="rotate(-7.20147 2.52441 27.2607)" fill="white"/>
<path d="M10.3937 37.0425C10.069 34.4721 11.8894 32.1251 14.4598 31.8004L105.355 20.3153C107.925 19.9905 110.272 21.8109 110.597 24.3813L113.683 48.8049C114.008 51.3753 112.187 53.7223 109.617 54.0471L18.7219 65.5321C16.1516 65.8569 13.8046 64.0365 13.4798 61.4661L10.3937 37.0425Z" fill="#FFEFB0"/>
<path d="M26.6989 47.2412L26.8951 48.7945L26.0399 48.9025L25.5122 44.7255L27.2225 44.5094C28.1824 44.3881 28.839 44.7661 28.9478 45.6272C29.0279 46.2613 28.7383 46.7293 28.1721 46.9723L29.42 48.4755L28.4426 48.5989L27.2806 47.1677L26.6989 47.2412ZM26.6085 46.5256L27.4171 46.4234C27.9174 46.3602 28.1462 46.1126 28.0991 45.7403C28.0514 45.3621 27.7682 45.1792 27.2679 45.2425L26.4592 45.3446L26.6085 46.5256ZM29.4109 44.2329L32.2964 43.8683L32.3898 44.6071L30.3478 44.8651L30.4654 45.7959L32.1758 45.5798L32.2684 46.3128L30.558 46.529L30.6889 47.5645L32.7308 47.3065L32.8242 48.0453L29.9387 48.4099L29.4109 44.2329ZM34.1292 46.32L34.3233 47.8559L33.4681 47.964L32.9403 43.7869L34.6507 43.5708C35.6106 43.4495 36.2671 43.8276 36.3767 44.6944C36.4854 45.5554 35.9443 46.0907 34.9844 46.212L34.1292 46.32ZM34.0373 45.5928L34.846 45.4907C35.3463 45.4274 35.5743 45.174 35.5273 44.8017C35.4795 44.4236 35.1963 44.2407 34.696 44.3039L33.8874 44.406L34.0373 45.5928ZM36.8026 45.4208C36.643 44.1583 37.3567 43.1639 38.5086 43.0183C39.6546 42.8735 40.5932 43.6592 40.7527 44.9216C40.9122 46.1841 40.1986 47.1785 39.0525 47.3233C37.9006 47.4689 36.9621 46.6832 36.8026 45.4208ZM39.8917 45.0304C39.7837 44.1752 39.255 43.6865 38.6034 43.7688C37.946 43.8518 37.5555 44.4568 37.6636 45.312C37.7716 46.1672 38.3003 46.6559 38.9577 46.5729C39.6093 46.4905 39.9998 45.8856 39.8917 45.0304ZM42.2596 45.275L42.4559 46.8283L41.6007 46.9364L41.0729 42.7593L42.7833 42.5432C43.7432 42.4219 44.3997 42.8 44.5085 43.661C44.5887 44.2951 44.2991 44.7631 43.7328 45.0061L44.9807 46.5093L44.0034 46.6328L42.8414 45.2015L42.2596 45.275ZM42.1692 44.5594L42.9778 44.4572C43.4782 44.394 43.7069 44.1464 43.6599 43.7741C43.6121 43.396 43.3289 43.2131 42.8286 43.2763L42.02 43.3784L42.1692 44.5594ZM48.2022 42.6091L46.8932 42.7745L47.3276 46.2127L46.4724 46.3208L46.038 42.8826L44.7232 43.0487L44.6299 42.3099L48.1088 41.8703L48.2022 42.6091ZM49.4755 41.6976L50.0033 45.8746L49.1481 45.9827L48.6203 41.8056L49.4755 41.6976ZM53.7832 41.1533L54.311 45.3303L53.5664 45.4244L51.2478 42.7917L51.6117 45.6714L50.7914 45.7751L50.2636 41.598L51.1304 41.4885L53.3092 43.997L52.963 41.2569L53.7832 41.1533ZM57.8856 44.8787L57.8349 44.4772C57.6993 44.7604 57.3294 45.014 56.8058 45.0801C55.7121 45.2183 54.7932 44.4478 54.6344 43.1912C54.4742 41.923 55.1798 40.9118 56.32 40.7677C57.2101 40.6553 57.8514 41.053 58.2081 41.7704L57.4223 42.1474C57.2523 41.6902 56.8977 41.4572 56.4265 41.5167C55.7691 41.5998 55.3859 42.2156 55.4932 43.065C55.6006 43.9144 56.1264 44.4272 56.7954 44.3426C57.3364 44.2743 57.6493 43.8505 57.6196 43.3342L56.6073 43.4621L56.5154 42.7349L58.3654 42.5011L58.6536 44.7816L57.8856 44.8787ZM63.412 40.6873L62.1031 40.8527L62.5375 44.2909L61.6823 44.3989L61.2479 40.9607L59.9331 41.1268L59.8397 40.388L63.3187 39.9484L63.412 40.6873ZM65.0169 42.3995L65.2132 43.9528L64.358 44.0608L63.8302 39.8838L65.5406 39.6677C66.5005 39.5464 67.1571 39.9244 67.2658 40.7855C67.346 41.4196 67.0564 41.8876 66.4901 42.1306L67.738 43.6338L66.7607 43.7572L65.5987 42.326L65.0169 42.3995ZM64.9265 41.6839L65.7352 41.5817C66.2355 41.5185 66.4643 41.2709 66.4172 40.8986C66.3694 40.5204 66.0863 40.3375 65.5859 40.4008L64.7773 40.5029L64.9265 41.6839ZM68.9454 39.2375L69.9227 39.114L72.0154 43.0933L71.1486 43.2028L70.7038 42.3488L68.9818 42.5664L68.7634 43.5042L67.914 43.6115L68.9454 39.2375ZM69.5422 40.1255L69.1575 41.8054L70.3385 41.6561L69.5422 40.1255ZM75.4768 38.4122L76.0046 42.5892L75.2599 42.6833L72.9414 40.0506L73.3052 42.9303L72.4849 43.034L71.9572 38.8569L72.824 38.7474L75.0027 41.2559L74.6565 38.5158L75.4768 38.4122ZM76.2832 41.7797L76.7988 41.1354C77.1622 41.5327 77.6411 41.7205 78.1006 41.6624C78.537 41.6073 78.8327 41.3749 78.7878 41.02C78.7393 40.636 78.3371 40.6337 77.6912 40.5734C77.0503 40.5066 76.3505 40.3941 76.2461 39.568C76.1454 38.771 76.7686 38.1839 77.6355 38.0744C78.3568 37.9833 78.9616 38.2319 79.3054 38.614L78.8109 39.238C78.5232 38.9256 78.168 38.7341 77.7026 38.7929C77.2954 38.8444 77.0411 39.0775 77.0793 39.38C77.1205 39.7058 77.4311 39.7315 77.9934 39.7846C78.675 39.8462 79.5108 39.912 79.6262 40.8254C79.7328 41.669 79.0521 42.2692 78.162 42.3816C77.458 42.4706 76.6846 42.2432 76.2832 41.7797ZM80.8971 37.7273L81.8745 37.6038L83.9672 41.5831L83.1004 41.6926L82.6556 40.8386L80.9336 41.0562L80.7152 41.994L79.8658 42.1013L80.8971 37.7273ZM81.494 38.6153L81.1093 40.2952L82.2903 40.146L81.494 38.6153ZM86.6793 37.7473L85.3703 37.9127L85.8048 41.3509L84.9496 41.459L84.5151 38.0208L83.2004 38.1869L83.107 37.4481L86.5859 37.0085L86.6793 37.7473ZM87.9527 36.8358L88.4805 41.0128L87.6253 41.1209L87.0975 36.9438L87.9527 36.8358ZM88.7952 38.8512C88.6357 37.5888 89.3493 36.5943 90.5012 36.4488C91.6473 36.3039 92.5858 37.0897 92.7454 38.3521C92.9049 39.6145 92.1912 40.609 91.0452 40.7538C89.8933 40.8993 88.9547 40.1136 88.7952 38.8512ZM91.8843 38.4609C91.7763 37.6057 91.2476 37.1169 90.596 37.1992C89.9386 37.2823 89.5481 37.8872 89.6562 38.7424C89.7643 39.5976 90.293 40.0864 90.9503 40.0033C91.6019 39.921 91.9924 39.3161 91.8843 38.4609ZM96.5852 35.745L97.113 39.9221L96.3683 40.0162L94.0497 37.3834L94.4136 40.2631L93.5933 40.3668L93.0655 36.1897L93.9324 36.0802L96.1111 38.5888L95.7649 35.8487L96.5852 35.745Z" fill="black"/>
<path d="M20.1402 102.683L20.5624 106.024L19.8783 106.111L19.456 102.769L20.1402 102.683ZM21.1696 105.948L20.8603 103.499L21.5118 103.417L21.5436 103.668C21.6586 103.493 21.8643 103.325 22.1762 103.286C22.6881 103.221 23.044 103.531 23.1111 104.061L23.3151 105.676L22.6636 105.759L22.483 104.33C22.4483 104.055 22.3119 103.874 22.0327 103.909C21.8046 103.938 21.6018 104.129 21.6424 104.45L21.8212 105.865L21.1696 105.948ZM23.5897 105.221L23.9423 104.756C24.1386 104.962 24.4547 105.069 24.7293 105.034C24.9481 105.007 25.1295 104.908 25.1071 104.731C25.0836 104.545 24.8992 104.545 24.4988 104.52C24.0932 104.491 23.6428 104.443 23.5763 103.918C23.5169 103.447 23.89 103.069 24.4764 102.995C24.9092 102.941 25.3179 103.069 25.5399 103.291L25.2193 103.748C25.0299 103.559 24.7779 103.473 24.5219 103.505C24.3171 103.531 24.1933 103.636 24.2104 103.771C24.2304 103.929 24.3968 103.937 24.7069 103.959C25.1463 103.993 25.6659 104.027 25.7359 104.581C25.8006 105.093 25.3659 105.469 24.7795 105.543C24.3373 105.599 23.8513 105.495 23.5897 105.221ZM28.0752 102.588L28.3846 105.036L27.733 105.118L27.7012 104.867C27.5863 105.042 27.3904 105.213 27.0786 105.253C26.5713 105.317 26.2014 105.009 26.1343 104.479L25.9297 102.859L26.5813 102.777L26.7677 104.252C26.8018 104.522 26.9452 104.683 27.2151 104.649C27.4431 104.621 27.6454 104.425 27.6054 104.108L27.4237 102.67L28.0752 102.588ZM30.1236 102.324L30.2041 102.962C30.1285 102.962 30.0721 102.964 29.9929 102.974C29.6532 103.017 29.419 103.26 29.4667 103.637L29.6237 104.879L28.9721 104.962L28.6628 102.514L29.3144 102.431L29.3579 102.776C29.4379 102.548 29.6616 102.373 29.9642 102.335C30.0293 102.327 30.0764 102.325 30.1236 102.324ZM31.809 104.655C31.0876 104.746 30.529 104.292 30.4332 103.533C30.342 102.812 30.7706 102.2 31.4641 102.112C32.1901 102.021 32.6493 102.511 32.7357 103.195L32.7598 103.386L31.0751 103.599C31.1686 103.965 31.4249 104.16 31.746 104.119C31.9974 104.088 32.1822 103.941 32.2267 103.695L32.8006 103.821C32.6802 104.29 32.2977 104.593 31.809 104.655ZM31.5253 102.634C31.2647 102.667 31.0839 102.846 31.0425 103.154L32.057 103.026C32.0218 102.784 31.8418 102.594 31.5253 102.634ZM34.4799 101.774L34.5604 102.411C34.4848 102.412 34.4284 102.414 34.3492 102.424C34.0095 102.467 33.7753 102.709 33.823 103.086L33.98 104.329L33.3284 104.411L33.0191 101.963L33.6707 101.881L33.7142 102.225C33.7942 101.998 34.0179 101.823 34.3205 101.785C34.3856 101.776 34.4327 101.775 34.4799 101.774Z" fill="#5D6460"/>
<g clip-path="url(#clip1_3132_301)">
<rect x="20.1729" y="110.802" width="45.7382" height="10.555" rx="2.34555" transform="rotate(-7.20147 20.1729 110.802)" fill="white"/>
<rect x="25.2676" y="113.704" width="36.356" height="3.51832" rx="1.75916" transform="rotate(-7.20147 25.2676 113.704)" fill="url(#paint0_linear_3132_301)"/>
</g>
<rect x="19.7259" y="110.455" width="46.5382" height="11.355" rx="2.74555" transform="rotate(-7.20147 19.7259 110.455)" stroke="#F0EBE1" stroke-width="0.8"/>
<path d="M23.0279 132.386C22.9003 131.376 23.4712 130.58 24.3927 130.464C25.3096 130.348 26.0604 130.976 26.1881 131.986C26.3157 132.996 25.7448 133.792 24.8279 133.908C23.9064 134.024 23.1555 133.396 23.0279 132.386ZM25.4992 132.073C25.4128 131.389 24.9898 130.998 24.4686 131.064C23.9427 131.13 23.6303 131.614 23.7167 132.299C23.8032 132.983 24.2261 133.374 24.752 133.307C25.2733 133.241 25.5857 132.757 25.4992 132.073ZM27.9946 130.964L28.0752 131.601C27.9996 131.601 27.9431 131.604 27.864 131.614C27.5243 131.657 27.2901 131.899 27.3377 132.276L27.4947 133.519L26.8432 133.601L26.5338 131.153L27.1854 131.071L27.2289 131.415C27.3089 131.187 27.5327 131.013 27.8352 130.974C27.9004 130.966 27.9475 130.965 27.9946 130.964ZM28.3526 130.63L28.2762 130.025L28.9417 129.941L29.0181 130.546L28.3526 130.63ZM29.05 130.835L29.3593 133.283L28.7077 133.365L28.3984 130.917L29.05 130.835ZM32.1636 132.654C32.2571 133.394 31.7969 133.869 31.0709 133.96C30.4798 134.035 30.0397 133.845 29.8395 133.383L30.4268 133.129C30.5272 133.362 30.7368 133.487 31.0161 133.452C31.3558 133.409 31.572 133.212 31.5209 132.807L31.4997 132.639C31.3952 132.823 31.165 132.984 30.8578 133.023C30.1876 133.107 29.7279 132.612 29.6432 131.942C29.5591 131.277 29.8813 130.683 30.5515 130.598C30.854 130.56 31.1218 130.658 31.2686 130.81L31.2368 130.559L31.8884 130.476L32.1636 132.654ZM31.385 131.694C31.3338 131.289 31.0863 131.088 30.7744 131.128C30.4207 131.172 30.2523 131.449 30.3041 131.859C30.3558 132.268 30.5883 132.499 30.942 132.454C31.2539 132.415 31.4438 132.159 31.3932 131.759L31.385 131.694ZM32.4271 130.115L32.3507 129.51L33.0162 129.426L33.0927 130.031L32.4271 130.115ZM33.1245 130.32L33.4338 132.768L32.7822 132.851L32.4729 130.403L33.1245 130.32ZM34.015 132.695L33.7057 130.247L34.3573 130.164L34.389 130.416C34.504 130.24 34.7097 130.073 35.0216 130.033C35.5335 129.969 35.8894 130.278 35.9565 130.809L36.1605 132.424L35.509 132.506L35.3284 131.077C35.2937 130.803 35.1573 130.621 34.8781 130.657C34.65 130.685 34.4472 130.876 34.4878 131.198L34.6666 132.612L34.015 132.695ZM37.4003 132.31C36.9209 132.37 36.5307 132.126 36.4761 131.693C36.4143 131.205 36.7794 130.951 37.2615 130.8L37.8565 130.606L37.8518 130.569C37.8254 130.36 37.7018 130.243 37.4319 130.277C37.1899 130.308 37.0778 130.431 37.0496 130.656L36.4159 130.618C36.4752 130.19 36.8052 129.808 37.387 129.734C38.006 129.656 38.4142 129.893 38.4859 130.461L38.6123 131.461C38.6288 131.592 38.6899 131.627 38.8319 131.59L38.8936 132.078C38.487 132.191 38.2251 132.139 38.0922 131.948C37.9557 132.14 37.7214 132.269 37.4003 132.31ZM37.9459 131.314L37.9142 131.063L37.4471 131.221C37.2383 131.29 37.0889 131.38 37.1136 131.575C37.1348 131.743 37.2728 131.825 37.4683 131.8C37.7429 131.765 37.9806 131.588 37.9459 131.314ZM39.2831 131.381L39.1231 130.115L38.7973 130.157L38.7285 129.612L39.0543 129.571L38.9661 128.873L39.6084 128.792L39.6966 129.49L40.1946 129.427L40.2634 129.971L39.7654 130.034L39.9083 131.165C39.9348 131.375 40.0546 131.388 40.2454 131.364C40.3385 131.352 40.3845 131.341 40.4671 131.322L40.5353 131.861C40.4219 131.899 40.284 131.931 40.1211 131.952C39.6278 132.014 39.3466 131.884 39.2831 131.381ZM43.0565 130.309C43.153 131.072 42.7243 131.646 42.0169 131.736C41.3095 131.825 40.7515 131.376 40.655 130.612C40.5592 129.854 40.9878 129.279 41.6952 129.19C42.4027 129.101 42.9607 129.55 43.0565 130.309ZM41.3019 130.53C41.3607 130.996 41.6089 131.239 41.9487 131.196C42.2884 131.153 42.4638 130.857 42.405 130.391C42.3467 129.93 42.1032 129.687 41.7634 129.73C41.4237 129.773 41.2437 130.07 41.3019 130.53ZM44.8063 128.839L44.8868 129.477C44.8112 129.477 44.7547 129.48 44.6756 129.49C44.3359 129.532 44.1017 129.775 44.1493 130.152L44.3064 131.394L43.6548 131.477L43.3455 129.029L43.997 128.946L44.0406 129.291C44.1205 129.063 44.3443 128.888 44.6468 128.85C44.712 128.842 44.7591 128.841 44.8063 128.839Z" fill="#5D6460"/>
<g clip-path="url(#clip2_3132_301)">
<rect x="23.7012" y="138.726" width="45.7382" height="10.555" rx="2.34555" transform="rotate(-7.20147 23.7012 138.726)" fill="white"/>
<rect x="28.7959" y="141.629" width="36.356" height="3.51832" rx="1.75916" transform="rotate(-7.20147 28.7959 141.629)" fill="url(#paint1_linear_3132_301)"/>
</g>
<rect x="23.2542" y="138.38" width="46.5382" height="11.355" rx="2.74555" transform="rotate(-7.20147 23.2542 138.38)" stroke="#F0EBE1" stroke-width="0.8"/>
<path d="M72.7628 98.1659L72.9198 99.4085L72.2357 99.4949L71.8135 96.1533L73.1818 95.9804C73.9497 95.8834 74.4749 96.1858 74.562 96.8746C74.6261 97.3819 74.3944 97.7564 73.9414 97.9507L74.9397 99.1533L74.1578 99.2521L73.2282 98.1071L72.7628 98.1659ZM72.6905 97.5934L73.3374 97.5117C73.7377 97.4611 73.9207 97.263 73.883 96.9652C73.8448 96.6626 73.6183 96.5163 73.218 96.5669L72.5711 96.6486L72.6905 97.5934ZM74.9536 96.3712L74.8771 95.7662L75.5427 95.6821L75.6191 96.2871L74.9536 96.3712ZM75.6509 96.5763L75.9602 99.0243L75.3087 99.1067L74.9993 96.6586L75.6509 96.5763ZM76.2471 98.5673L76.5997 98.1019C76.796 98.3088 77.1121 98.4154 77.3867 98.3807C77.6055 98.3531 77.7869 98.2545 77.7645 98.0776C77.741 97.8915 77.5565 97.8911 77.1562 97.8661C76.7506 97.8369 76.3002 97.7898 76.2337 97.2639C76.1743 96.7938 76.5474 96.4157 77.1338 96.3416C77.5666 96.2869 77.9753 96.415 78.1972 96.6375L77.8767 97.0941C77.6873 96.9053 77.4353 96.8189 77.1793 96.8513C76.9745 96.8772 76.8507 96.9826 76.8678 97.1176C76.8877 97.2758 77.0542 97.2832 77.3643 97.3055C77.8037 97.3398 78.3233 97.3734 78.3933 97.9273C78.458 98.4392 78.0233 98.8157 77.4369 98.8898C76.9947 98.9456 76.5087 98.8415 76.2471 98.5673ZM79.1489 95.2264L79.3818 97.0695L80.1182 96.0118L80.9001 95.913L80.1194 96.9573L81.2792 98.3523L80.5345 98.4463L79.7274 97.4844L79.4765 97.8188L79.5712 98.5681L78.9196 98.6504L78.4973 95.3088L79.1489 95.2264ZM83.119 96.8715L83.2743 98.1002L82.5901 98.1866L82.1679 94.845L83.5362 94.6721C84.3041 94.575 84.8294 94.8775 84.917 95.571C85.004 96.2598 84.5711 96.688 83.8032 96.785L83.119 96.8715ZM83.0455 96.2897L83.6924 96.208C84.0927 96.1574 84.2751 95.9547 84.2375 95.6568C84.1993 95.3543 83.9727 95.208 83.5725 95.2585L82.9256 95.3403L83.0455 96.2897ZM86.5537 97.7378C85.8323 97.829 85.2737 97.3747 85.1778 96.6161C85.0867 95.8947 85.5153 95.2826 86.2087 95.195C86.9348 95.1032 87.3939 95.5937 87.4804 96.2778L87.5045 96.4687L85.8197 96.6815C85.9133 97.048 86.1696 97.2426 86.4907 97.202C86.742 97.1702 86.9268 97.0239 86.9713 96.7772L87.5452 96.9033C87.4248 97.3724 87.0423 97.6761 86.5537 97.7378ZM86.2699 95.7168C86.0093 95.7497 85.8286 95.9286 85.7871 96.2365L86.8017 96.1083C86.7665 95.8668 86.5864 95.6768 86.2699 95.7168ZM89.2245 94.8565L89.3051 95.4941C89.2294 95.4942 89.173 95.4966 89.0939 95.5066C88.7541 95.5495 88.52 95.7919 88.5676 96.1688L88.7246 97.4115L88.073 97.4938L87.7637 95.0458L88.4153 94.9634L88.4588 95.3078C88.5388 95.0802 88.7626 94.9054 89.0651 94.8671C89.1303 94.8589 89.1774 94.8577 89.2245 94.8565ZM89.5825 94.5228L89.506 93.9178L90.1716 93.8337L90.248 94.4387L89.5825 94.5228ZM90.2798 94.7278L90.5892 97.1759L89.9376 97.2582L89.6283 94.8102L90.2798 94.7278ZM93.273 95.5932C93.3694 96.3565 92.9407 96.9308 92.2333 97.0202C91.5259 97.1095 90.9679 96.6599 90.8714 95.8967C90.7756 95.138 91.2042 94.5638 91.9117 94.4744C92.6191 94.385 93.1771 94.8346 93.273 95.5932ZM91.5184 95.8149C91.5772 96.2803 91.8254 96.5232 92.1651 96.4803C92.5049 96.4373 92.6802 96.1409 92.6214 95.6755C92.5632 95.2148 92.3196 94.9713 91.9799 95.0142C91.6401 95.0572 91.4601 95.3542 91.5184 95.8149ZM94.7991 96.696C94.1242 96.7812 93.6604 96.2535 93.5722 95.5554C93.4845 94.8619 93.8026 94.2354 94.4774 94.1502C94.7846 94.1114 95.0326 94.203 95.1992 94.3616L95.0545 93.2167L95.7061 93.1343L96.1283 96.476L95.4768 96.5583L95.445 96.307C95.3237 96.5067 95.1062 96.6571 94.7991 96.696ZM95.3278 95.2674C95.2749 94.8485 95.0134 94.6499 94.7016 94.6893C94.3339 94.7357 94.1755 95.0536 94.2284 95.4725C94.2819 95.896 94.5144 96.1645 94.8821 96.1181C95.1939 96.0787 95.3972 95.8165 95.3449 95.4023L95.3278 95.2674Z" fill="#5D6460"/>
<g clip-path="url(#clip3_3132_301)">
<rect x="72.5303" y="104.186" width="45.7382" height="10.555" rx="2.34555" transform="rotate(-7.20147 72.5303 104.186)" fill="white"/>
<rect x="77.625" y="107.089" width="36.356" height="3.51832" rx="1.75916" transform="rotate(-7.20147 77.625 107.089)" fill="url(#paint2_linear_3132_301)"/>
</g>
<rect x="72.0833" y="103.839" width="46.5382" height="11.355" rx="2.74555" transform="rotate(-7.20147 72.0833 103.839)" stroke="#F0EBE1" stroke-width="0.8"/>
<path d="M76.2921 126.09L76.4491 127.333L75.765 127.42L75.3428 124.078L76.7111 123.905C77.479 123.808 78.0042 124.11 78.0913 124.799C78.1554 125.306 77.9237 125.681 77.4707 125.875L78.469 127.078L77.6871 127.177L76.7575 126.032L76.2921 126.09ZM76.2198 125.518L76.8667 125.436C77.267 125.386 77.45 125.188 77.4123 124.89C77.3741 124.587 77.1476 124.441 76.7473 124.491L76.1004 124.573L76.2198 125.518ZM79.8831 126.951C79.1617 127.042 78.6031 126.588 78.5072 125.829C78.4161 125.108 78.8446 124.496 79.5381 124.408C80.2641 124.317 80.7233 124.807 80.8098 125.491L80.8339 125.682L79.1491 125.895C79.2427 126.261 79.4989 126.456 79.8201 126.415C80.0714 126.384 80.2562 126.237 80.3007 125.991L80.8746 126.117C80.7542 126.586 80.3717 126.889 79.8831 126.951ZM79.5993 124.93C79.3387 124.963 79.158 125.142 79.1165 125.45L80.1311 125.322C80.0958 125.08 79.9158 124.89 79.5993 124.93ZM81.0473 123.972L80.9709 123.367L81.6364 123.283L81.7129 123.888L81.0473 123.972ZM81.7447 124.177L82.054 126.625L81.4024 126.707L81.0931 124.259L81.7447 124.177ZM82.6352 126.551L82.3259 124.103L82.9775 124.021L83.0092 124.272C83.1242 124.097 83.33 123.929 83.6418 123.89C84.1537 123.825 84.5097 124.135 84.5767 124.665L84.7808 126.28L84.1292 126.363L83.9486 124.934C83.914 124.659 83.7776 124.478 83.4983 124.513C83.2703 124.542 83.0674 124.733 83.108 125.054L83.2868 126.469L82.6352 126.551ZM85.0553 125.825L85.4079 125.359C85.6043 125.566 85.9204 125.673 86.1949 125.638C86.4137 125.611 86.5951 125.512 86.5728 125.335C86.5492 125.149 86.3648 125.149 85.9644 125.124C85.5588 125.094 85.1084 125.047 85.042 124.521C84.9826 124.051 85.3556 123.673 85.942 123.599C86.3749 123.544 86.7835 123.673 87.0055 123.895L86.6849 124.352C86.4955 124.163 86.2435 124.076 85.9875 124.109C85.7827 124.135 85.6589 124.24 85.676 124.375C85.696 124.533 85.8624 124.541 86.1726 124.563C86.6119 124.597 87.1316 124.631 87.2015 125.185C87.2662 125.697 86.8315 126.073 86.2451 126.147C85.8029 126.203 85.317 126.099 85.0553 125.825ZM89.5409 123.192L89.8502 125.64L89.1986 125.722L89.1669 125.471C89.0519 125.646 88.856 125.817 88.5442 125.857C88.0369 125.921 87.667 125.613 87.6 125.082L87.3953 123.463L88.0469 123.38L88.2333 124.856C88.2674 125.126 88.4108 125.287 88.6807 125.253C88.9088 125.224 89.111 125.029 89.071 124.712L88.8893 123.274L89.5409 123.192ZM91.5892 122.928L91.6698 123.566C91.5941 123.566 91.5377 123.568 91.4586 123.578C91.1188 123.621 90.8847 123.864 90.9323 124.241L91.0893 125.483L90.4377 125.566L90.1284 123.117L90.78 123.035L90.8235 123.38C90.9035 123.152 91.1273 122.977 91.4298 122.939C91.4949 122.931 91.5421 122.929 91.5892 122.928ZM93.2746 125.259C92.5533 125.35 91.9947 124.896 91.8988 124.137C91.8077 123.416 92.2362 122.804 92.9297 122.716C93.6557 122.624 94.1149 123.115 94.2013 123.799L94.2255 123.99L92.5407 124.203C92.6343 124.569 92.8905 124.764 93.2117 124.723C93.463 124.692 93.6478 124.545 93.6923 124.298L94.2662 124.425C94.1458 124.894 93.7633 125.197 93.2746 125.259ZM92.9909 123.238C92.7303 123.271 92.5496 123.45 92.5081 123.758L93.5227 123.63C93.4874 123.388 93.3074 123.198 92.9909 123.238ZM95.9455 122.378L96.0261 123.015C95.9504 123.015 95.894 123.018 95.8149 123.028C95.4751 123.071 95.241 123.313 95.2886 123.69L95.4456 124.933L94.794 125.015L94.4847 122.567L95.1363 122.485L95.1798 122.829C95.2598 122.601 95.4836 122.427 95.7861 122.388C95.8512 122.38 95.8984 122.379 95.9455 122.378Z" fill="#5D6460"/>
<g clip-path="url(#clip4_3132_301)">
<rect x="76.0596" y="132.111" width="45.7382" height="10.555" rx="2.34555" transform="rotate(-7.20147 76.0596 132.111)" fill="white"/>
<rect x="81.1543" y="135.013" width="36.356" height="3.51832" rx="1.75916" transform="rotate(-7.20147 81.1543 135.013)" fill="url(#paint3_linear_3132_301)"/>
</g>
<rect x="75.6126" y="131.764" width="46.5382" height="11.355" rx="2.74555" transform="rotate(-7.20147 75.6126 131.764)" stroke="#F0EBE1" stroke-width="0.8"/>
<path d="M18.7434 74.4887L19.1657 77.8303L18.5699 77.9056L16.7151 75.7994L17.0062 78.1032L16.3499 78.1861L15.9277 74.8445L16.6212 74.7569L18.3642 76.7637L18.0872 74.5716L18.7434 74.4887ZM20.4483 77.7108C19.9689 77.7714 19.5787 77.5275 19.524 77.0947C19.4623 76.606 19.8273 76.3518 20.3095 76.2011L20.9045 76.0077L20.8998 75.9705C20.8733 75.761 20.7498 75.6442 20.4799 75.6783C20.2379 75.7089 20.1257 75.8318 20.0975 76.0576L19.4638 76.0195C19.5232 75.5912 19.8532 75.209 20.4349 75.1355C21.0539 75.0573 21.4621 75.2942 21.5339 75.862L21.6603 76.8626C21.6768 76.9929 21.7379 77.0277 21.8798 76.9909L21.9416 77.4796C21.535 77.5924 21.2731 77.5404 21.1402 77.3491C21.0037 77.5413 20.7694 77.6702 20.4483 77.7108ZM20.9939 76.7151L20.9621 76.4638L20.4951 76.6221C20.2863 76.691 20.1369 76.7808 20.1616 76.9763C20.1828 77.1439 20.3208 77.2257 20.5162 77.201C20.7908 77.1663 21.0286 76.9897 20.9939 76.7151ZM22.8283 75.9301L23.0071 77.3449L22.3555 77.4273L22.0462 74.9792L22.6978 74.8969L22.7295 75.1482C22.8399 74.9735 23.041 74.8062 23.3574 74.7663C23.6553 74.7286 23.8992 74.8255 24.0607 75.0178C24.1902 74.8454 24.4 74.6345 24.7769 74.5869C25.2796 74.5234 25.6495 74.8313 25.7165 75.3618L25.9206 76.9768L25.269 77.0591L25.0885 75.6303C25.0538 75.3557 24.9267 75.1732 24.6567 75.2073C24.4427 75.2344 24.2445 75.4249 24.2851 75.746L24.4638 77.1609L23.8123 77.2432L23.6317 75.8144C23.597 75.5398 23.4699 75.3573 23.2 75.3914C22.9859 75.4184 22.7878 75.609 22.8283 75.9301ZM27.5695 76.8205C26.8481 76.9116 26.2895 76.4574 26.1937 75.6987C26.1025 74.9774 26.5311 74.3652 27.2246 74.2776C27.9506 74.1859 28.4098 74.6764 28.4962 75.3605L28.5203 75.5513L26.8355 75.7642C26.9291 76.1307 27.1854 76.3252 27.5065 76.2847C27.7578 76.2529 27.9427 76.1066 27.9872 75.8598L28.561 75.9859C28.4406 76.4551 28.0582 76.7587 27.5695 76.8205ZM27.2858 74.7995C27.0251 74.8324 26.8444 75.0113 26.8029 75.3191L27.8175 75.1909C27.7823 74.9495 27.6022 74.7595 27.2858 74.7995Z" fill="#5D6460"/>
<g clip-path="url(#clip5_3132_301)">
<rect x="16.6445" y="82.8772" width="45.7382" height="10.555" rx="2.34555" transform="rotate(-7.20147 16.6445 82.8772)" fill="white"/>
<rect x="21.7393" y="85.7795" width="36.356" height="3.51832" rx="1.75916" transform="rotate(-7.20147 21.7393 85.7795)" fill="url(#paint4_linear_3132_301)"/>
</g>
<rect x="16.1975" y="82.5305" width="46.5382" height="11.355" rx="2.74555" transform="rotate(-7.20147 16.1975 82.5305)" stroke="#F0EBE1" stroke-width="0.8"/>
<path d="M69.2372 70.2553L69.3925 71.4839L68.7083 71.5704L68.2861 68.2288L69.6544 68.0559C70.4223 67.9588 70.9476 68.2613 71.0352 68.9547C71.1222 69.6435 70.6893 70.0718 69.9214 70.1688L69.2372 70.2553ZM69.1637 69.6735L69.8107 69.5918C70.2109 69.5412 70.3933 69.3385 70.3557 69.0406C70.3175 68.7381 70.0909 68.5918 69.6907 68.6423L69.0438 68.7241L69.1637 69.6735ZM73.6975 69.6964C73.794 70.4597 73.3653 71.034 72.6579 71.1234C71.9505 71.2127 71.3925 70.7631 71.296 69.9999C71.2002 69.2412 71.6288 68.667 72.3362 68.5776C73.0437 68.4882 73.6017 68.9378 73.6975 69.6964ZM71.943 69.9181C72.0018 70.3835 72.25 70.6264 72.5897 70.5835C72.9295 70.5405 73.1048 70.2441 73.046 69.7787C72.9878 69.318 72.7442 69.0745 72.4045 69.1174C72.0647 69.1604 71.8847 69.4574 71.943 69.9181ZM74.5251 67.4404L74.9474 70.7821L74.2958 70.8644L73.8736 67.5227L74.5251 67.4404ZM75.1735 67.9732L75.097 67.3682L75.7626 67.2841L75.839 67.8891L75.1735 67.9732ZM75.8708 68.1782L76.1802 70.6263L75.5286 70.7086L75.2193 68.2606L75.8708 68.1782ZM77.1094 69.2653C77.1676 69.7261 77.4291 69.9625 77.7735 69.919C78.0435 69.8849 78.1829 69.6782 78.2116 69.4192L78.8065 69.5994C78.7454 70.0137 78.4061 70.397 77.8383 70.4688C77.1262 70.5588 76.5583 70.1057 76.4624 69.347C76.3672 68.5931 76.8045 68.013 77.5166 67.923C78.0798 67.8518 78.4932 68.1306 78.6596 68.5115L78.1387 68.8421C78.0464 68.5984 77.86 68.4328 77.5901 68.4669C77.2457 68.5105 77.0517 68.8092 77.1094 69.2653ZM80.444 70.2294C80.3405 70.6822 80.1524 70.9897 79.6125 71.0579C79.4868 71.0738 79.4397 71.075 79.3548 71.0763L79.2883 70.5504C79.3587 70.5462 79.4012 70.5455 79.4757 70.5361C79.6479 70.5144 79.7351 70.4561 79.7825 70.2704L79.8369 70.0649L78.6603 67.8258L79.3352 67.7405L80.0925 69.2808L80.4289 67.6023L81.0851 67.5194L80.444 70.2294ZM82.7701 69.7936L82.8661 68.9067L82.4566 68.9585L82.3936 68.4605L82.9242 68.3934L82.9897 67.7516L82.4498 67.8198L82.3869 67.3218L83.0478 67.2383L83.1437 66.3514L83.7162 66.2791L83.6202 67.166L84.2206 67.0901L84.3166 66.2032L84.8844 66.1315L84.7884 67.0184L85.1979 66.9666L85.2609 67.4646L84.735 67.531L84.6648 68.1735L85.2094 68.1047L85.2723 68.6027L84.6114 68.6862L84.5154 69.5731L83.9383 69.646L84.0343 68.7591L83.4339 68.835L83.3379 69.7219L82.7701 69.7936ZM83.492 68.3217L84.0924 68.2458L84.1625 67.6034L83.5621 67.6792L83.492 68.3217Z" fill="#5D6460"/>
<g clip-path="url(#clip6_3132_301)">
<rect x="69.0029" y="76.2615" width="45.7382" height="10.555" rx="2.34555" transform="rotate(-7.20147 69.0029 76.2615)" fill="white"/>
<rect x="74.0977" y="79.1638" width="36.356" height="3.51832" rx="1.75916" transform="rotate(-7.20147 74.0977 79.1638)" fill="url(#paint5_linear_3132_301)"/>
</g>
<rect x="68.5559" y="75.9148" width="46.5382" height="11.355" rx="2.74555" transform="rotate(-7.20147 68.5559 75.9148)" stroke="#F0EBE1" stroke-width="0.8"/>
</g>
</g>
<g filter="url(#filter1_d_3132_301)">
<rect x="28.5244" width="113.759" height="131.351" rx="7.03664" fill="white"/>
<path d="M35.1055 10.6911C35.1055 8.10027 37.2057 6 39.7966 6H131.414C134.005 6 136.105 8.10028 136.105 10.6911V35.3089C136.105 37.8997 134.005 40 131.414 40H39.7966C37.2057 40 35.1055 37.8997 35.1055 35.3089V10.6911Z" fill="#E1F3FF"/>
<path d="M50.0035 22.8533V24.4189H49.1415V20.2087H50.8655C51.833 20.2087 52.437 20.6661 52.437 21.5339C52.437 22.1731 52.0911 22.6011 51.4988 22.7712L52.5484 24.4189H51.5633L50.5899 22.8533H50.0035ZM50.0035 22.132H50.8186C51.3229 22.132 51.5809 21.9151 51.5809 21.5398C51.5809 21.1586 51.3229 20.9417 50.8186 20.9417H50.0035V22.132ZM53.0712 20.2087H55.9797V20.9534H53.9215V21.8916H55.6455V22.6305H53.9215V23.6742H55.9797V24.4189H53.0712V20.2087ZM57.4907 22.8709V24.4189H56.6287V20.2087H58.3527C59.3202 20.2087 59.9242 20.6661 59.9242 21.5398C59.9242 22.4076 59.3202 22.8709 58.3527 22.8709H57.4907ZM57.4907 22.1379H58.3058C58.8101 22.1379 59.0681 21.9151 59.0681 21.5398C59.0681 21.1586 58.8101 20.9417 58.3058 20.9417H57.4907V22.1379ZM60.2557 22.3138C60.2557 21.0414 61.0884 20.1442 62.2494 20.1442C63.4046 20.1442 64.2373 21.0414 64.2373 22.3138C64.2373 23.5863 63.4046 24.4834 62.2494 24.4834C61.0884 24.4834 60.2557 23.5863 60.2557 22.3138ZM63.3694 22.3138C63.3694 21.4518 62.9062 20.9006 62.2494 20.9006C61.5868 20.9006 61.1236 21.4518 61.1236 22.3138C61.1236 23.1758 61.5868 23.727 62.2494 23.727C62.9062 23.727 63.3694 23.1758 63.3694 22.3138ZM65.688 22.8533V24.4189H64.826V20.2087H66.55C67.5175 20.2087 68.1215 20.6661 68.1215 21.5339C68.1215 22.1731 67.7755 22.6011 67.1833 22.7712L68.2329 24.4189H67.2478L66.2744 22.8533H65.688ZM65.688 22.132H66.5031C67.0074 22.132 67.2654 21.9151 67.2654 21.5398C67.2654 21.1586 67.0074 20.9417 66.5031 20.9417H65.688V22.132ZM71.9179 20.9534H70.5985V24.4189H69.7365V20.9534H68.4113V20.2087H71.9179V20.9534ZM73.2954 20.2087V24.4189H72.4335V20.2087H73.2954ZM77.6374 20.2087V24.4189H76.8868L74.9166 21.5163V24.4189H74.0898V20.2087H74.9635L76.8106 22.9706V20.2087H77.6374ZM81.2404 24.4189V24.0143C81.0704 24.2782 80.6716 24.4834 80.1439 24.4834C79.0415 24.4834 78.2264 23.6039 78.2264 22.3373C78.2264 21.0589 79.0532 20.1442 80.2025 20.1442C81.0997 20.1442 81.6861 20.6192 81.95 21.3756L81.1232 21.6512C81.0118 21.1762 80.6892 20.9006 80.2143 20.9006C79.5516 20.9006 79.0943 21.4636 79.0943 22.3197C79.0943 23.1758 79.5516 23.7505 80.226 23.7505C80.7713 23.7505 81.1349 23.3693 81.1701 22.8533H80.1498V22.1203H82.0145V24.4189H81.2404ZM87.2487 20.9534H85.9293V24.4189H85.0673V20.9534H83.7421V20.2087H87.2487V20.9534ZM88.6263 22.8533V24.4189H87.7643V20.2087H89.4882C90.4558 20.2087 91.0598 20.6661 91.0598 21.5339C91.0598 22.1731 90.7138 22.6011 90.1215 22.7712L91.1712 24.4189H90.186L89.2126 22.8533H88.6263ZM88.6263 22.132H89.4413C89.9456 22.132 90.2036 21.9151 90.2036 21.5398C90.2036 21.1586 89.9456 20.9417 89.4413 20.9417H88.6263V22.132ZM92.9201 20.2087H93.9052L95.4826 24.4189H94.6089L94.2746 23.5159H92.5389L92.2047 24.4189H91.3486L92.9201 20.2087ZM93.4009 21.1645L92.8087 22.7829H93.999L93.4009 21.1645ZM99.5035 20.2087V24.4189H98.7529L96.7826 21.5163V24.4189H95.9558V20.2087H96.8295L98.6767 22.9706V20.2087H99.5035ZM99.8814 23.6508L100.474 23.0761C100.784 23.5159 101.236 23.7622 101.699 23.7622C102.139 23.7622 102.461 23.5687 102.461 23.211C102.461 22.824 102.063 22.7712 101.429 22.6305C100.802 22.4839 100.122 22.2845 100.122 21.4518C100.122 20.6485 100.814 20.1442 101.687 20.1442C102.415 20.1442 102.983 20.4667 103.277 20.8889L102.708 21.446C102.461 21.1 102.133 20.8654 101.664 20.8654C101.254 20.8654 100.972 21.0648 100.972 21.3697C100.972 21.6981 101.277 21.7626 101.828 21.8858C102.497 22.0324 103.318 22.2024 103.318 23.123C103.318 23.9733 102.567 24.4834 101.67 24.4834C100.96 24.4834 100.221 24.1609 99.8814 23.6508ZM104.967 20.2087H105.952L107.529 24.4189H106.656L106.321 23.5159H104.586L104.252 24.4189H103.395L104.967 20.2087ZM105.448 21.1645L104.855 22.7829H106.046L105.448 21.1645ZM110.701 20.9534H109.382V24.4189H108.52V20.9534H107.194V20.2087H110.701V20.9534ZM112.079 20.2087V24.4189H111.217V20.2087H112.079ZM112.662 22.3138C112.662 21.0414 113.494 20.1442 114.655 20.1442C115.811 20.1442 116.643 21.0414 116.643 22.3138C116.643 23.5863 115.811 24.4834 114.655 24.4834C113.494 24.4834 112.662 23.5863 112.662 22.3138ZM115.775 22.3138C115.775 21.4518 115.312 20.9006 114.655 20.9006C113.993 20.9006 113.53 21.4518 113.53 22.3138C113.53 23.1758 113.993 23.727 114.655 23.727C115.312 23.727 115.775 23.1758 115.775 22.3138ZM120.78 20.2087V24.4189H120.029L118.059 21.5163V24.4189H117.232V20.2087H118.106L119.953 22.9706V20.2087H120.78Z" fill="black"/>
<path d="M36.5467 77.0351V80.4033H35.8571V77.0351H36.5467ZM37.1587 80.4033V77.9358H37.8154V78.1891C37.9515 78.0296 38.1766 77.8889 38.4909 77.8889C39.0069 77.8889 39.3213 78.2407 39.3213 78.7755V80.4033H38.6645V78.9632C38.6645 78.6864 38.5519 78.4894 38.2704 78.4894C38.0406 78.4894 37.8154 78.6535 37.8154 78.9772V80.4033H37.1587ZM39.6508 79.9858L40.0589 79.5683C40.2278 79.7982 40.528 79.9436 40.8048 79.9436C41.0253 79.9436 41.2176 79.8685 41.2176 79.6903C41.2176 79.5026 41.0346 79.4792 40.6406 79.4041C40.2418 79.3244 39.8009 79.2212 39.8009 78.6911C39.8009 78.2173 40.2184 77.8889 40.8095 77.8889C41.2457 77.8889 41.6351 78.0672 41.8274 78.3158L41.4521 78.7286C41.288 78.5175 41.0487 78.4002 40.7907 78.4002C40.5843 78.4002 40.4483 78.4894 40.4483 78.6254C40.4483 78.7849 40.6124 78.813 40.9174 78.874C41.3489 78.9632 41.8603 79.0617 41.8603 79.6199C41.8603 80.1359 41.3818 80.4549 40.7907 80.4549C40.345 80.4549 39.8759 80.2907 39.6508 79.9858ZM44.431 77.9358V80.4033H43.7742V80.15C43.6382 80.3095 43.4224 80.4549 43.1081 80.4549C42.5968 80.4549 42.2684 80.1031 42.2684 79.5683V77.9358H42.9252V79.4229C42.9252 79.695 43.0471 79.8732 43.3192 79.8732C43.5491 79.8732 43.7742 79.7043 43.7742 79.3854V77.9358H44.431ZM46.4962 77.9311V78.5738C46.4212 78.5644 46.3649 78.5597 46.2851 78.5597C45.9427 78.5597 45.68 78.7708 45.68 79.1508V80.4033H45.0232V77.9358H45.68V78.2829C45.7879 78.0672 46.0318 77.9217 46.3367 77.9217C46.4024 77.9217 46.4493 77.9264 46.4962 77.9311ZM47.8762 80.4549C47.149 80.4549 46.6518 79.9342 46.6518 79.1696C46.6518 78.4424 47.1537 77.8889 47.8527 77.8889C48.5845 77.8889 48.9786 78.4331 48.9786 79.1227V79.315H47.2804C47.3273 79.6903 47.5572 79.9154 47.8809 79.9154C48.1342 79.9154 48.3359 79.7935 48.4109 79.5542L48.9645 79.7513C48.7862 80.2016 48.3687 80.4549 47.8762 80.4549ZM47.848 78.4143C47.5853 78.4143 47.3836 78.5691 47.3038 78.8693H48.3265C48.3218 78.6254 48.167 78.4143 47.848 78.4143ZM50.8871 77.9311V78.5738C50.8121 78.5644 50.7558 78.5597 50.676 78.5597C50.3336 78.5597 50.0709 78.7708 50.0709 79.1508V80.4033H49.4141V77.9358H50.0709V78.2829C50.1788 78.0672 50.4227 77.9217 50.7277 77.9217C50.7933 77.9217 50.8402 77.9264 50.8871 77.9311Z" fill="#5D6460"/>
<rect x="35.1615" y="84.6945" width="46.5382" height="11.355" rx="2.74555" fill="white"/>
<rect x="35.1615" y="84.6945" width="46.5382" height="11.355" rx="2.74555" stroke="#F0EBE1" stroke-width="0.8"/>
<rect x="40.252" y="88.6128" width="36.356" height="3.51832" rx="1.75916" fill="url(#paint6_linear_3132_301)"/>
<path d="M35.6882 106.866C35.6882 105.848 36.3543 105.13 37.2832 105.13C38.2073 105.13 38.8734 105.848 38.8734 106.866C38.8734 107.884 38.2073 108.601 37.2832 108.601C36.3543 108.601 35.6882 107.884 35.6882 106.866ZM38.1792 106.866C38.1792 106.176 37.8086 105.735 37.2832 105.735C36.7531 105.735 36.3825 106.176 36.3825 106.866C36.3825 107.555 36.7531 107.996 37.2832 107.996C37.8086 107.996 38.1792 107.555 38.1792 106.866ZM40.794 106.078V106.72C40.7189 106.711 40.6626 106.706 40.5829 106.706C40.2404 106.706 39.9777 106.917 39.9777 107.297V108.55H39.321V106.082H39.9777V106.429C40.0856 106.214 40.3295 106.068 40.6345 106.068C40.7001 106.068 40.7471 106.073 40.794 106.078ZM41.1909 105.791V105.182H41.8618V105.791H41.1909ZM41.8571 106.082V108.55H41.2003V106.082H41.8571ZM44.7181 108.278C44.7181 109.024 44.2021 109.436 43.4703 109.436C42.8745 109.436 42.4617 109.192 42.321 108.709L42.9355 108.531C43.0059 108.775 43.1982 108.925 43.4797 108.925C43.8221 108.925 44.0613 108.756 44.0613 108.348V108.179C43.9347 108.348 43.6861 108.479 43.3764 108.479C42.7009 108.479 42.3069 107.931 42.3069 107.255C42.3069 106.584 42.7009 106.035 43.3764 106.035C43.6814 106.035 43.9347 106.167 44.0613 106.336V106.082H44.7181V108.278ZM44.066 107.227C44.066 106.819 43.8456 106.589 43.5313 106.589C43.1747 106.589 42.973 106.842 42.973 107.255C42.973 107.668 43.1747 107.926 43.5313 107.926C43.8456 107.926 44.066 107.696 44.066 107.293V107.227ZM45.2979 105.791V105.182H45.9687V105.791H45.2979ZM45.964 106.082V108.55H45.3072V106.082H45.964ZM46.5498 108.55V106.082H47.2066V106.336C47.3426 106.176 47.5678 106.035 47.8821 106.035C48.3981 106.035 48.7124 106.387 48.7124 106.922V108.55H48.0557V107.11C48.0557 106.833 47.9431 106.636 47.6616 106.636C47.4318 106.636 47.2066 106.8 47.2066 107.124V108.55H46.5498ZM49.9567 108.592C49.4735 108.592 49.117 108.301 49.117 107.865C49.117 107.372 49.511 107.166 50.0083 107.077L50.6228 106.96V106.922C50.6228 106.711 50.5149 106.58 50.2429 106.58C49.9989 106.58 49.8723 106.687 49.816 106.908L49.1921 106.791C49.3046 106.373 49.6799 106.035 50.2663 106.035C50.8902 106.035 51.2655 106.322 51.2655 106.894V107.902C51.2655 108.034 51.3218 108.076 51.4672 108.057V108.55C51.0497 108.611 50.7964 108.526 50.6885 108.32C50.529 108.494 50.2804 108.592 49.9567 108.592ZM50.6228 107.673V107.419L50.1397 107.518C49.9239 107.56 49.7644 107.63 49.7644 107.827C49.7644 107.996 49.891 108.095 50.0881 108.095C50.3648 108.095 50.6228 107.949 50.6228 107.673ZM51.941 107.907V106.631H51.6126V106.082H51.941V105.379H52.5884V106.082H53.0903V106.631H52.5884V107.771C52.5884 107.982 52.7056 108.01 52.898 108.01C52.9918 108.01 53.0387 108.006 53.1232 107.996V108.54C53.0059 108.564 52.8651 108.578 52.701 108.578C52.2037 108.578 51.941 108.414 51.941 107.907ZM55.8191 107.316C55.8191 108.085 55.3219 108.601 54.6088 108.601C53.8958 108.601 53.3985 108.085 53.3985 107.316C53.3985 106.551 53.8958 106.035 54.6088 106.035C55.3219 106.035 55.8191 106.551 55.8191 107.316ZM54.0506 107.316C54.0506 107.785 54.2664 108.057 54.6088 108.057C54.9513 108.057 55.1624 107.785 55.1624 107.316C55.1624 106.852 54.9513 106.58 54.6088 106.58C54.2664 106.58 54.0506 106.852 54.0506 107.316ZM57.7393 106.078V106.72C57.6642 106.711 57.6079 106.706 57.5282 106.706C57.1857 106.706 56.923 106.917 56.923 107.297V108.55H56.2663V106.082H56.923V106.429C57.0309 106.214 57.2748 106.068 57.5798 106.068C57.6454 106.068 57.6924 106.073 57.7393 106.078Z" fill="#5D6460"/>
<rect x="35.1615" y="112.841" width="46.5382" height="11.355" rx="2.74555" fill="white"/>
<rect x="35.1615" y="112.841" width="46.5382" height="11.355" rx="2.74555" stroke="#F0EBE1" stroke-width="0.8"/>
<rect x="40.252" y="116.759" width="36.356" height="3.51832" rx="1.75916" fill="url(#paint7_linear_3132_301)"/>
<path d="M89.3211 79.1508V80.4033H88.6315V77.0351H90.0107C90.7847 77.0351 91.2679 77.401 91.2679 78.0953C91.2679 78.6066 90.9911 78.9491 90.5173 79.0851L91.357 80.4033H90.5689L89.7902 79.1508H89.3211ZM89.3211 78.5738H89.9731C90.3766 78.5738 90.583 78.4002 90.583 78.1C90.583 77.7951 90.3766 77.6215 89.9731 77.6215H89.3211V78.5738ZM91.7195 77.645V77.0351H92.3903V77.645H91.7195ZM92.3856 77.9358V80.4033H91.7289V77.9358H92.3856ZM92.7275 79.9858L93.1357 79.5683C93.3045 79.7982 93.6048 79.9436 93.8815 79.9436C94.102 79.9436 94.2944 79.8685 94.2944 79.6903C94.2944 79.5026 94.1114 79.4792 93.7174 79.4041C93.3186 79.3244 92.8777 79.2212 92.8777 78.6911C92.8777 78.2173 93.2952 77.8889 93.8862 77.8889C94.3225 77.8889 94.7119 78.0672 94.9042 78.3158L94.5289 78.7286C94.3647 78.5175 94.1255 78.4002 93.8675 78.4002C93.6611 78.4002 93.525 78.4894 93.525 78.6254C93.525 78.7849 93.6892 78.813 93.9941 78.874C94.4257 78.9632 94.937 79.0617 94.937 79.6199C94.937 80.1359 94.4586 80.4549 93.8675 80.4549C93.4218 80.4549 92.9527 80.2907 92.7275 79.9858ZM96.0253 77.0351V78.8928L96.8884 77.9358H97.6765L96.7712 78.874L97.7469 80.4033H96.9963L96.3161 79.3478L96.0253 79.6481V80.4033H95.3685V77.0351H96.0253ZM99.7578 79.1649V80.4033H99.0682V77.0351H100.447C101.221 77.0351 101.705 77.401 101.705 78.1C101.705 78.7943 101.221 79.1649 100.447 79.1649H99.7578ZM99.7578 78.5785H100.41C100.813 78.5785 101.02 78.4002 101.02 78.1C101.02 77.7951 100.813 77.6215 100.41 77.6215H99.7578V78.5785ZM103.057 80.4549C102.33 80.4549 101.832 79.9342 101.832 79.1696C101.832 78.4424 102.334 77.8889 103.033 77.8889C103.765 77.8889 104.159 78.4331 104.159 79.1227V79.315H102.461C102.508 79.6903 102.738 79.9154 103.061 79.9154C103.315 79.9154 103.517 79.7935 103.592 79.5542L104.145 79.7513C103.967 80.2016 103.549 80.4549 103.057 80.4549ZM103.029 78.4143C102.766 78.4143 102.564 78.5691 102.484 78.8693H103.507C103.502 78.6254 103.348 78.4143 103.029 78.4143ZM106.068 77.9311V78.5738C105.993 78.5644 105.936 78.5597 105.857 78.5597C105.514 78.5597 105.252 78.7708 105.252 79.1508V80.4033H104.595V77.9358H105.252V78.2829C105.359 78.0672 105.603 77.9217 105.908 77.9217C105.974 77.9217 106.021 77.9264 106.068 77.9311ZM106.465 77.645V77.0351H107.136V77.645H106.465ZM107.131 77.9358V80.4033H106.474V77.9358H107.131ZM109.992 79.1696C109.992 79.9389 109.495 80.4549 108.782 80.4549C108.069 80.4549 107.571 79.9389 107.571 79.1696C107.571 78.4049 108.069 77.8889 108.782 77.8889C109.495 77.8889 109.992 78.4049 109.992 79.1696ZM108.223 79.1696C108.223 79.6387 108.439 79.9108 108.782 79.9108C109.124 79.9108 109.335 79.6387 109.335 79.1696C109.335 78.7051 109.124 78.4331 108.782 78.4331C108.439 78.4331 108.223 78.7051 108.223 79.1696ZM111.368 80.4549C110.688 80.4549 110.293 79.8732 110.293 79.1696C110.293 78.4706 110.688 77.8889 111.368 77.8889C111.677 77.8889 111.912 78.0109 112.057 78.1891V77.0351H112.714V80.4033H112.057V80.15C111.912 80.333 111.677 80.4549 111.368 80.4549ZM112.071 79.1039C112.071 78.6817 111.837 78.4518 111.523 78.4518C111.152 78.4518 110.955 78.7474 110.955 79.1696C110.955 79.5965 111.152 79.892 111.523 79.892C111.837 79.892 112.071 79.6574 112.071 79.2399V79.1039Z" fill="#5D6460"/>
<rect x="87.9359" y="84.6945" width="46.5382" height="11.355" rx="2.74555" fill="white"/>
<rect x="87.9359" y="84.6945" width="46.5382" height="11.355" rx="2.74555" stroke="#F0EBE1" stroke-width="0.8"/>
<rect x="93.0264" y="88.6128" width="36.356" height="3.51832" rx="1.75916" fill="url(#paint8_linear_3132_301)"/>
<path d="M89.3211 107.297V108.55H88.6315V105.182H90.0107C90.7847 105.182 91.2679 105.548 91.2679 106.242C91.2679 106.753 90.9911 107.096 90.5173 107.232L91.357 108.55H90.5689L89.7902 107.297H89.3211ZM89.3211 106.72H89.9731C90.3766 106.72 90.583 106.547 90.583 106.246C90.583 105.942 90.3766 105.768 89.9731 105.768H89.3211V106.72ZM92.7758 108.601C92.0486 108.601 91.5514 108.081 91.5514 107.316C91.5514 106.589 92.0533 106.035 92.7523 106.035C93.4841 106.035 93.8782 106.58 93.8782 107.269V107.461H92.18C92.2269 107.837 92.4568 108.062 92.7805 108.062C93.0338 108.062 93.2355 107.94 93.3106 107.701L93.8641 107.898C93.6858 108.348 93.2683 108.601 92.7758 108.601ZM92.7476 106.561C92.4849 106.561 92.2832 106.716 92.2035 107.016H93.2261C93.2214 106.772 93.0666 106.561 92.7476 106.561ZM94.3044 105.791V105.182H94.9752V105.791H94.3044ZM94.9705 106.082V108.55H94.3137V106.082H94.9705ZM95.5563 108.55V106.082H96.2131V106.336C96.3491 106.176 96.5743 106.035 96.8886 106.035C97.4046 106.035 97.7189 106.387 97.7189 106.922V108.55H97.0622V107.11C97.0622 106.833 96.9496 106.636 96.6681 106.636C96.4383 106.636 96.2131 106.8 96.2131 107.124V108.55H95.5563ZM98.0484 108.132L98.4566 107.715C98.6255 107.945 98.9257 108.09 99.2025 108.09C99.4229 108.09 99.6153 108.015 99.6153 107.837C99.6153 107.649 99.4323 107.626 99.0383 107.551C98.6395 107.471 98.1986 107.368 98.1986 106.838C98.1986 106.364 98.6161 106.035 99.2071 106.035C99.6434 106.035 100.033 106.214 100.225 106.462L99.8498 106.875C99.6856 106.664 99.4464 106.547 99.1884 106.547C98.982 106.547 98.8459 106.636 98.8459 106.772C98.8459 106.931 99.0101 106.96 99.315 107.021C99.7466 107.11 100.258 107.208 100.258 107.766C100.258 108.282 99.7795 108.601 99.1884 108.601C98.7427 108.601 98.2736 108.437 98.0484 108.132ZM102.829 106.082V108.55H102.172V108.296C102.036 108.456 101.82 108.601 101.506 108.601C100.994 108.601 100.666 108.25 100.666 107.715V106.082H101.323V107.569C101.323 107.841 101.445 108.02 101.717 108.02C101.947 108.02 102.172 107.851 102.172 107.532V106.082H102.829ZM104.894 106.078V106.72C104.819 106.711 104.763 106.706 104.683 106.706C104.34 106.706 104.078 106.917 104.078 107.297V108.55H103.421V106.082H104.078V106.429C104.186 106.214 104.429 106.068 104.734 106.068C104.8 106.068 104.847 106.073 104.894 106.078ZM106.274 108.601C105.547 108.601 105.049 108.081 105.049 107.316C105.049 106.589 105.551 106.035 106.25 106.035C106.982 106.035 107.376 106.58 107.376 107.269V107.461H105.678C105.725 107.837 105.955 108.062 106.279 108.062C106.532 108.062 106.734 107.94 106.809 107.701L107.362 107.898C107.184 108.348 106.766 108.601 106.274 108.601ZM106.246 106.561C105.983 106.561 105.781 106.716 105.702 107.016H106.724C106.719 106.772 106.565 106.561 106.246 106.561ZM109.285 106.078V106.72C109.21 106.711 109.153 106.706 109.074 106.706C108.731 106.706 108.469 106.917 108.469 107.297V108.55H107.812V106.082H108.469V106.429C108.576 106.214 108.82 106.068 109.125 106.068C109.191 106.068 109.238 106.073 109.285 106.078Z" fill="#5D6460"/>
<rect x="87.9359" y="112.841" width="46.5382" height="11.355" rx="2.74555" fill="white"/>
<rect x="87.9359" y="112.841" width="46.5382" height="11.355" rx="2.74555" stroke="#F0EBE1" stroke-width="0.8"/>
<rect x="93.0264" y="116.759" width="36.356" height="3.51832" rx="1.75916" fill="url(#paint9_linear_3132_301)"/>
<path d="M38.6952 48.8886V52.2568H38.0947L36.5185 49.9347V52.2568H35.8571V48.8886H36.556L38.0337 51.0981V48.8886H38.6952ZM39.9826 52.2991C39.4994 52.2991 39.1429 52.0082 39.1429 51.5719C39.1429 51.0794 39.537 50.873 40.0342 50.7838L40.6488 50.6666V50.629C40.6488 50.4179 40.5409 50.2866 40.2688 50.2866C40.0248 50.2866 39.8982 50.3945 39.8419 50.615L39.218 50.4977C39.3306 50.0802 39.7058 49.7424 40.2922 49.7424C40.9162 49.7424 41.2914 50.0286 41.2914 50.6009V51.6095C41.2914 51.7408 41.3477 51.783 41.4932 51.7643V52.2568C41.0756 52.3178 40.8223 52.2334 40.7144 52.027C40.5549 52.2005 40.3063 52.2991 39.9826 52.2991ZM40.6488 51.3796V51.1263L40.1656 51.2248C39.9498 51.267 39.7903 51.3374 39.7903 51.5344C39.7903 51.7033 39.9169 51.8018 40.114 51.8018C40.3907 51.8018 40.6488 51.6564 40.6488 51.3796ZM42.5672 50.8307V52.2568H41.9104V49.7893H42.5672V50.0426C42.6985 49.8831 42.919 49.7424 43.238 49.7424C43.5382 49.7424 43.7681 49.8691 43.9041 50.0802C44.0542 49.9254 44.2888 49.7424 44.6688 49.7424C45.1754 49.7424 45.5038 50.0942 45.5038 50.629V52.2568H44.847V50.8167C44.847 50.5399 44.7438 50.3429 44.4717 50.3429C44.256 50.3429 44.0355 50.5071 44.0355 50.8307V52.2568H43.3787V50.8167C43.3787 50.5399 43.2755 50.3429 43.0034 50.3429C42.7876 50.3429 42.5672 50.5071 42.5672 50.8307ZM47.1593 52.3084C46.4322 52.3084 45.9349 51.7877 45.9349 51.0231C45.9349 50.296 46.4369 49.7424 47.1358 49.7424C47.8677 49.7424 48.2617 50.2866 48.2617 50.9762V51.1685H46.5635C46.6104 51.5438 46.8403 51.769 47.164 51.769C47.4173 51.769 47.619 51.647 47.6941 51.4077L48.2476 51.6048C48.0694 52.0551 47.6519 52.3084 47.1593 52.3084ZM47.1312 50.2678C46.8685 50.2678 46.6667 50.4226 46.587 50.7228H47.6096C47.605 50.4789 47.4502 50.2678 47.1312 50.2678Z" fill="#5D6460"/>
<rect x="35.1615" y="56.548" width="46.5382" height="11.355" rx="2.74555" fill="white"/>
<rect x="35.1615" y="56.548" width="46.5382" height="11.355" rx="2.74555" stroke="#F0EBE1" stroke-width="0.8"/>
<rect x="40.252" y="60.4661" width="36.356" height="3.51832" rx="1.75916" fill="url(#paint10_linear_3132_301)"/>
<path d="M89.3211 51.0184V52.2568H88.6315V48.8886H90.0107C90.7847 48.8886 91.2679 49.2545 91.2679 49.9535C91.2679 50.6478 90.7847 51.0184 90.0107 51.0184H89.3211ZM89.3211 50.432H89.9731C90.3766 50.432 90.583 50.2537 90.583 49.9535C90.583 49.6486 90.3766 49.475 89.9731 49.475H89.3211V50.432ZM93.8162 51.0231C93.8162 51.7924 93.319 52.3084 92.6059 52.3084C91.8929 52.3084 91.3956 51.7924 91.3956 51.0231C91.3956 50.2584 91.8929 49.7424 92.6059 49.7424C93.319 49.7424 93.8162 50.2584 93.8162 51.0231ZM92.0477 51.0231C92.0477 51.4922 92.2635 51.7643 92.6059 51.7643C92.9484 51.7643 93.1595 51.4922 93.1595 51.0231C93.1595 50.5587 92.9484 50.2866 92.6059 50.2866C92.2635 50.2866 92.0477 50.5587 92.0477 51.0231ZM94.9201 48.8886V52.2568H94.2634V48.8886H94.9201ZM95.4966 49.4985V48.8886H96.1674V49.4985H95.4966ZM96.1627 49.7893V52.2568H95.5059V49.7893H96.1627ZM97.2552 51.0231C97.2552 51.4875 97.485 51.7549 97.8322 51.7549C98.1043 51.7549 98.2685 51.5672 98.3294 51.3139L98.8971 51.5672C98.7845 51.9707 98.3998 52.3084 97.8275 52.3084C97.1098 52.3084 96.6031 51.7877 96.6031 51.0231C96.6031 50.2631 97.1098 49.7424 97.8275 49.7424C98.3951 49.7424 98.7704 50.0708 98.8877 50.4695L98.3294 50.7322C98.2685 50.4789 98.1043 50.2913 97.8322 50.2913C97.485 50.2913 97.2552 50.5634 97.2552 51.0231ZM100.443 52.3976C100.283 52.8338 100.058 53.1153 99.5139 53.1153C99.3872 53.1153 99.3403 53.1106 99.2559 53.1012V52.5711C99.3262 52.5758 99.3684 52.5805 99.4435 52.5805C99.6171 52.5805 99.7109 52.5336 99.7813 52.3553L99.861 52.1583L98.9744 49.7893H99.6546L100.213 51.4124L100.757 49.7893H101.418L100.443 52.3976ZM102.805 52.2568L103.011 51.389H102.599V50.887H103.133L103.279 50.2584H102.735V49.7565H103.401L103.607 48.8886H104.184L103.978 49.7565H104.583L104.789 48.8886H105.362L105.155 49.7565H105.568V50.2584H105.038L104.888 50.887H105.437V51.389H104.771L104.564 52.2568H103.983L104.189 51.389H103.584L103.377 52.2568H102.805ZM103.706 50.887H104.311L104.461 50.2584H103.856L103.706 50.887Z" fill="#5D6460"/>
<rect x="87.9359" y="56.548" width="46.5382" height="11.355" rx="2.74555" fill="white"/>
<rect x="87.9359" y="56.548" width="46.5382" height="11.355" rx="2.74555" stroke="#F0EBE1" stroke-width="0.8"/>
<rect x="93.0264" y="60.4661" width="36.356" height="3.51832" rx="1.75916" fill="url(#paint11_linear_3132_301)"/>
</g>
<defs>
<filter id="filter0_d_3132_301" x="-0.826042" y="13" width="136.028" height="151.276" filterUnits="userSpaceOnUse" color-interpolation-filters="sRGB">
<feFlood flood-opacity="0" result="BackgroundImageFix"/>
<feColorMatrix in="SourceAlpha" type="matrix" values="0 0 0 0 0 0 0 0 0 0 0 0 0 0 0 0 0 0 127 0" result="hardAlpha"/>
<feOffset dy="3.35046"/>
<feGaussianBlur stdDeviation="1.67523"/>
<feComposite in2="hardAlpha" operator="out"/>
<feColorMatrix type="matrix" values="0 0 0 0 0 0 0 0 0 0 0 0 0 0 0 0 0 0 0.08 0"/>
<feBlend mode="normal" in2="BackgroundImageFix" result="effect1_dropShadow_3132_301"/>
<feBlend mode="normal" in="SourceGraphic" in2="effect1_dropShadow_3132_301" result="shape"/>
</filter>
<filter id="filter1_d_3132_301" x="25.174" y="0" width="120.46" height="138.051" filterUnits="userSpaceOnUse" color-interpolation-filters="sRGB">
<feFlood flood-opacity="0" result="BackgroundImageFix"/>
<feColorMatrix in="SourceAlpha" type="matrix" values="0 0 0 0 0 0 0 0 0 0 0 0 0 0 0 0 0 0 127 0" result="hardAlpha"/>
<feOffset dy="3.35046"/>
<feGaussianBlur stdDeviation="1.67523"/>
<feComposite in2="hardAlpha" operator="out"/>
<feColorMatrix type="matrix" values="0 0 0 0 0 0 0 0 0 0 0 0 0 0 0 0 0 0 0.08 0"/>
<feBlend mode="normal" in2="BackgroundImageFix" result="effect1_dropShadow_3132_301"/>
<feBlend mode="normal" in="SourceGraphic" in2="effect1_dropShadow_3132_301" result="shape"/>
</filter>
<linearGradient id="paint0_linear_3132_301" x1="25.2676" y1="115.464" x2="61.6236" y2="115.464" gradientUnits="userSpaceOnUse">
<stop stop-color="white"/>
<stop offset="1" stop-color="#FFEFB0"/>
</linearGradient>
<linearGradient id="paint1_linear_3132_301" x1="28.7959" y1="143.388" x2="65.1519" y2="143.388" gradientUnits="userSpaceOnUse">
<stop stop-color="white"/>
<stop offset="1" stop-color="#FFEFB0"/>
</linearGradient>
<linearGradient id="paint2_linear_3132_301" x1="77.625" y1="108.848" x2="113.981" y2="108.848" gradientUnits="userSpaceOnUse">
<stop stop-color="white"/>
<stop offset="1" stop-color="#FFEFB0"/>
</linearGradient>
<linearGradient id="paint3_linear_3132_301" x1="81.1543" y1="136.772" x2="117.51" y2="136.772" gradientUnits="userSpaceOnUse">
<stop stop-color="white"/>
<stop offset="1" stop-color="#FFEFB0"/>
</linearGradient>
<linearGradient id="paint4_linear_3132_301" x1="21.7393" y1="87.5387" x2="58.0952" y2="87.5387" gradientUnits="userSpaceOnUse">
<stop stop-color="white"/>
<stop offset="1" stop-color="#FFEFB0"/>
</linearGradient>
<linearGradient id="paint5_linear_3132_301" x1="74.0977" y1="80.923" x2="110.454" y2="80.923" gradientUnits="userSpaceOnUse">
<stop stop-color="white"/>
<stop offset="1" stop-color="#FFEFB0"/>
</linearGradient>
<linearGradient id="paint6_linear_3132_301" x1="40.252" y1="90.372" x2="76.6079" y2="90.372" gradientUnits="userSpaceOnUse">
<stop stop-color="white"/>
<stop offset="1" stop-color="#C1F2FF"/>
</linearGradient>
<linearGradient id="paint7_linear_3132_301" x1="40.252" y1="118.518" x2="76.6079" y2="118.518" gradientUnits="userSpaceOnUse">
<stop stop-color="white"/>
<stop offset="1" stop-color="#C1F2FF"/>
</linearGradient>
<linearGradient id="paint8_linear_3132_301" x1="93.0264" y1="90.372" x2="129.382" y2="90.372" gradientUnits="userSpaceOnUse">
<stop stop-color="white"/>
<stop offset="1" stop-color="#C1F2FF"/>
</linearGradient>
<linearGradient id="paint9_linear_3132_301" x1="93.0264" y1="118.518" x2="129.382" y2="118.518" gradientUnits="userSpaceOnUse">
<stop stop-color="white"/>
<stop offset="1" stop-color="#C1F2FF"/>
</linearGradient>
<linearGradient id="paint10_linear_3132_301" x1="40.252" y1="62.2252" x2="76.6079" y2="62.2252" gradientUnits="userSpaceOnUse">
<stop stop-color="white"/>
<stop offset="1" stop-color="#C1F2FF"/>
</linearGradient>
<linearGradient id="paint11_linear_3132_301" x1="93.0264" y1="62.2252" x2="129.382" y2="62.2252" gradientUnits="userSpaceOnUse">
<stop stop-color="white"/>
<stop offset="1" stop-color="#C1F2FF"/>
</linearGradient>
<clipPath id="clip0_3132_301">
<rect x="2.52441" y="27.2607" width="113.759" height="131.351" rx="7.03664" transform="rotate(-7.20147 2.52441 27.2607)" fill="white"/>
</clipPath>
<clipPath id="clip1_3132_301">
<rect x="20.1729" y="110.802" width="45.7382" height="10.555" rx="2.34555" transform="rotate(-7.20147 20.1729 110.802)" fill="white"/>
</clipPath>
<clipPath id="clip2_3132_301">
<rect x="23.7012" y="138.726" width="45.7382" height="10.555" rx="2.34555" transform="rotate(-7.20147 23.7012 138.726)" fill="white"/>
</clipPath>
<clipPath id="clip3_3132_301">
<rect x="72.5303" y="104.186" width="45.7382" height="10.555" rx="2.34555" transform="rotate(-7.20147 72.5303 104.186)" fill="white"/>
</clipPath>
<clipPath id="clip4_3132_301">
<rect x="76.0596" y="132.111" width="45.7382" height="10.555" rx="2.34555" transform="rotate(-7.20147 76.0596 132.111)" fill="white"/>
</clipPath>
<clipPath id="clip5_3132_301">
<rect x="16.6445" y="82.8772" width="45.7382" height="10.555" rx="2.34555" transform="rotate(-7.20147 16.6445 82.8772)" fill="white"/>
</clipPath>
<clipPath id="clip6_3132_301">
<rect x="69.0029" y="76.2615" width="45.7382" height="10.555" rx="2.34555" transform="rotate(-7.20147 69.0029 76.2615)" fill="white"/>
</clipPath>
</defs>
</svg>
