<svg width="100" height="100" viewBox="0 0 100 100" fill="none" xmlns="http://www.w3.org/2000/svg">
<path d="M0 12C0 5.37258 5.37258 0 12 0H88C94.6274 0 100 5.37258 100 12V88C100 94.6274 94.6274 100 88 100H12C5.37258 100 0 94.6274 0 88V12Z" fill="#17211B"/>
<path d="M34.3303 13.0071H23.9229V86.8053H34.3303V13.0071Z" fill="white"/>
<path d="M74.4343 34.1557V44.6404H51.6774V48.2064C51.6774 61.1182 62.9218 72.5584 75.3023 76.022L76.0771 76.2396V86.993L74.7984 86.72C56.8755 82.8725 41.27 66.6762 41.27 48.2107V39.4066C41.27 36.5103 43.603 34.1599 46.478 34.1599H74.4343V34.1557Z" fill="white"/>
</svg>
