<svg width="135" height="60" viewBox="0 0 135 60" fill="none" xmlns="http://www.w3.org/2000/svg">
<g clip-path="url(#clip0_53_1880)">
<path d="M117.865 15.5087C118.412 15.4344 118.917 15.818 118.991 16.3652C119.066 16.9124 118.682 17.4167 118.135 17.4911L103.88 19.4257L96.0156 32.6532H88.5508L82.7637 37.9999H61.833L57.332 33.8417H46.4014L39.1133 27.1093H0C-0.55213 27.1093 -0.999749 26.6614 -1 26.1093C-1 25.557 -0.552285 25.1093 0 25.1093H39.8955L40.1836 25.374L47.1836 31.8417H58.1143L62.6162 35.9999H81.9805L87.7676 30.6532H94.8779L102.655 17.5741L117.865 15.5087Z" fill="#A17EF8"/>
<circle cx="123.012" cy="16.0605" r="8.12988" fill="white"/>
<circle cx="123.012" cy="16.0605" r="3.06787" fill="#A17EF8"/>
</g>
<defs>
<clipPath id="clip0_53_1880">
<rect width="131" height="55" fill="white"/>
</clipPath>
</defs>
</svg>
