<svg width="135" height="60" viewBox="0 0 135 60" fill="none" xmlns="http://www.w3.org/2000/svg">
<circle cx="126.87" cy="8.12988" r="8.12988" fill="white"/>
<circle cx="126.87" cy="8.12988" r="3.06787" fill="#FACF33"/>
<path d="M125.967 7.64925C117.396 7.60921 107.274 7.27441 106.79 7.27441C106.575 7.27446 106.134 7.33694 105.688 7.4043C105.194 7.47876 104.564 7.58133 103.891 7.69434C102.568 7.9164 101.063 8.18072 100.059 8.36133C97.754 8.50168 94.3019 8.71648 91.3564 8.9082C89.8712 9.00488 88.513 9.09598 87.4951 9.16895C86.9865 9.2054 86.56 9.23747 86.2441 9.26367C85.9675 9.28662 85.6932 9.31058 85.5615 9.33691C85.557 9.33765 85.5362 9.34087 85.4922 9.34668C85.4424 9.35324 85.3767 9.3611 85.2949 9.37012C85.1312 9.38816 84.9157 9.40967 84.6592 9.43359C84.1464 9.4814 83.4815 9.53868 82.7617 9.59766C81.3232 9.71553 79.6737 9.8409 78.5938 9.9209L78.582 9.92188L74.375 10.2822L74.293 10.29L74.2139 10.3105L68.6045 11.7412C66.5464 12.0641 62.375 12.7201 61.7969 12.8164C61.371 12.8875 60.1663 13.2067 59.0518 13.5146C57.9155 13.8286 56.7473 14.1669 56.3574 14.2969C56.1217 14.3755 55.7368 14.5678 55.3555 14.7666C54.9409 14.9828 54.4321 15.2587 53.8994 15.5537C52.8379 16.1416 51.6606 16.814 50.8955 17.2568L46.5918 19.5283L46.5469 19.5527L46.5039 19.5811L43.2471 21.752L43.2363 21.7607L37.4668 25.8467L37.3623 25.9209L37.2793 26.0195L34.1543 29.7461L34 29.9287L33.9463 30.1621L32.0918 38.1582L30.8105 39.3545L25.6221 39.2334L23.3291 41.5264H1" stroke="#FACF33" stroke-width="2" stroke-linecap="round"/>
</svg>
