<svg width="137" height="164" viewBox="0 0 137 164" fill="none" xmlns="http://www.w3.org/2000/svg">
<line x1="134" y1="7.5" x2="3" y2="7.49999" stroke="#E3E3EE" stroke-dasharray="2 2"/>
<line x1="134" y1="37.5" x2="3" y2="37.5" stroke="#E3E3EE" stroke-dasharray="2 2"/>
<line x1="134" y1="67.5" x2="3" y2="67.5" stroke="#E3E3EE" stroke-dasharray="2 2"/>
<line x1="134" y1="97.5" x2="3" y2="97.5" stroke="#E3E3EE" stroke-dasharray="2 2"/>
<line x1="134" y1="127.5" x2="3" y2="127.5" stroke="#E3E3EE" stroke-dasharray="2 2"/>
<line x1="134" y1="158" x2="3" y2="158" stroke="#17211B" stroke-width="2"/>
<rect x="16" y="97" width="4" height="60" rx="2" fill="#15BF53"/>
<rect x="25" y="79" width="4" height="78" rx="2" fill="#15BF53"/>
<rect x="34" y="97" width="4" height="60" rx="2" fill="#15BF53"/>
<rect x="43" y="119" width="4" height="38" rx="2" fill="#15BF53"/>
<rect x="52" y="69" width="4" height="88" rx="2" fill="#15BF53"/>
<rect x="61" y="97" width="4" height="60" rx="2" fill="#15BF53"/>
<rect x="70" y="127" width="4" height="30" rx="2" fill="#15BF53"/>
<rect x="79" y="97" width="4" height="60" rx="2" fill="#15BF53"/>
<rect x="88" y="54" width="4" height="103" rx="2" fill="#15BF53"/>
<rect x="97" y="133" width="4" height="24" rx="2" fill="#15BF53"/>
<rect x="106" y="97" width="4" height="60" rx="2" fill="#15BF53"/>
<rect x="115" y="69" width="4" height="88" rx="2" fill="#15BF53"/>
</svg>
