<svg width="287" height="94" viewBox="0 0 479 156" fill="none" xmlns="http://www.w3.org/2000/svg">
<rect width="119.615" height="3" transform="matrix(-1 0 0 1 479.22 153)" fill="#B8F5C6"/>
<rect opacity="0.8" width="119.615" height="3" transform="matrix(-1 0 0 1 479.22 102.324)" fill="#B8F5C6"/>
<rect opacity="0.8" width="119.615" height="2" transform="matrix(-1 0 0 1 479.22 54.125)" fill="#B8F5C6"/>
<rect opacity="0.8" width="119.615" height="2" transform="matrix(-1 0 0 1 479.22 12.0898)" fill="#B8F5C6"/>
<rect width="119.594" height="3" transform="matrix(-1 0 0 1 239.188 42.4863)" fill="#B8F5C6"/>
<rect width="119.594" height="2" transform="matrix(-1 0 0 1 239.188 11)" fill="#B8F5C6"/>
<rect width="119.594" height="2" transform="matrix(-1 0 0 1 119.594 26.7422)" fill="#B8F5C6"/>
<rect opacity="0.8" width="120.599" height="2" transform="matrix(1 1.74846e-07 1.74846e-07 -1 238.961 64.1094)" fill="#B8F5C6"/>
<rect opacity="0.8" width="120.769" height="2" transform="matrix(1 1.74846e-07 1.74846e-07 -1 238.938 75.1602)" fill="#B8F5C6"/>
<rect opacity="0.7" width="120.599" height="1" transform="matrix(1 1.74846e-07 1.74846e-07 -1 238.961 51.7402)" fill="#B8F5C6"/>
<rect opacity="0.7" width="120.599" height="1" transform="matrix(1 1.74846e-07 1.74846e-07 -1 238.961 35.1641)" fill="#B8F5C6"/>
<rect opacity="0.7" width="120.599" height="1" transform="matrix(1 1.74846e-07 1.74846e-07 -1 238.961 18.4238)" fill="#B8F5C6"/>
<rect opacity="0.8" width="120.769" height="2" transform="matrix(1 1.74846e-07 1.74846e-07 -1 238.938 97.1953)" fill="#B8F5C6"/>
<rect width="120.769" height="3" transform="matrix(1 1.74846e-07 1.74846e-07 -1 238.938 109.246)" fill="#B8F5C6"/>
<rect width="120.769" height="3" transform="matrix(1 1.74846e-07 1.74846e-07 -1 238.938 121.727)" fill="#B8F5C6"/>
<rect width="120.769" height="4" transform="matrix(1 1.74846e-07 1.74846e-07 -1 238.938 134.207)" fill="#B8F5C6"/>
</svg>
